<svg width="419" height="930" viewBox="0 0 419 930" fill="none" xmlns="http://www.w3.org/2000/svg">
<g clip-path="url(#clip0_63_112)">
<path d="M205 518V923.5" stroke="#4A2D24" stroke-width="15" stroke-linecap="round"/>
<path d="M419 240.5C419 373.324 282.137 481 209.5 481C136.863 481 0 373.324 0 240.5C0 107.676 93.7963 0 209.5 0C325.204 0 419 107.676 419 240.5Z" fill="currentColor"/>
<path d="M209.5 7.5C320.123 7.5 411.5 110.812 411.5 240.5C411.5 304.324 378.564 362.655 336.172 405.27C315.023 426.529 291.709 443.675 269.376 455.469C246.929 467.323 225.991 473.5 209.5 473.5C193.009 473.5 172.071 467.323 149.624 455.469C127.291 443.675 103.977 426.529 82.8281 405.27C40.4359 362.655 7.5 304.324 7.5 240.5C7.5 110.812 98.877 7.5 209.5 7.5Z" stroke="black" stroke-opacity="0.27" stroke-width="15"/>
<mask id="mask0_63_112" style="mask-type:alpha" maskUnits="userSpaceOnUse" x="140" y="468" width="138" height="55">
<path fill-rule="evenodd" clip-rule="evenodd" d="M150.764 498.027L150.766 498.028C150.763 498.027 150.76 498.026 150.76 498.026L150.764 498.027Z" fill="black"/>
<path fill-rule="evenodd" clip-rule="evenodd" d="M277.16 507.232C277.791 505.209 277.536 503.012 276.458 501.187L257.683 469.391C252.863 471.467 248.114 473.28 243.468 474.817C231.245 478.862 219.735 481 209.5 481C198.574 481 186.195 478.564 173.047 473.972C168.458 472.369 163.774 470.504 159.027 468.388L141.383 501.471C140.378 503.354 140.223 505.577 140.958 507.581C141.693 509.585 143.247 511.181 145.23 511.97L148 505C145.23 511.97 145.232 511.971 145.234 511.972L145.238 511.974L145.244 511.976L145.249 511.978L145.261 511.982L145.277 511.988L145.321 512.006L145.361 512.021C145.429 512.048 145.523 512.084 145.64 512.128C145.874 512.217 146.206 512.339 146.631 512.492C147.481 512.798 148.708 513.222 150.284 513.724C153.436 514.727 157.993 516.043 163.745 517.351C175.24 519.964 191.562 522.552 211.02 522.5C230.468 522.448 245.817 519.86 256.393 517.243C261.681 515.935 265.776 514.619 268.595 513.609C270.004 513.104 271.095 512.675 271.857 512.362C272.238 512.206 272.537 512.078 272.752 511.984C272.859 511.937 272.947 511.899 273.013 511.869L273.058 511.849L273.096 511.832C273.107 511.827 273.116 511.822 273.125 511.818L273.131 511.815L273.137 511.812L273.141 511.811C273.144 511.809 273.146 511.808 270 505L273.146 511.808C275.071 510.918 276.529 509.256 277.16 507.232ZM150.764 498.027L150.766 498.028C150.763 498.027 150.76 498.026 150.76 498.026L150.764 498.027Z" fill="black"/>
</mask>
<g mask="url(#mask0_63_112)">
<path d="M148 505L176 452.5H239L270 505C270 505 248.58 514.9 211 515C173.42 515.1 148 505 148 505Z" fill="currentColor"/>
<path d="M176 452.5V445H171.5L169.382 448.971L176 452.5ZM148 505L141.382 501.471C140.378 503.354 140.223 505.577 140.958 507.581C141.693 509.585 143.247 511.182 145.231 511.97L148 505ZM270 505L273.146 511.808C275.071 510.919 276.529 509.256 277.16 507.232C277.791 505.209 277.536 503.012 276.458 501.187L270 505ZM239 452.5L245.458 448.687L243.281 445H239V452.5ZM176 452.5L169.382 448.971L141.382 501.471L148 505L154.618 508.529L182.618 456.029L176 452.5ZM270 505L276.458 501.187L245.458 448.687L239 452.5L232.542 456.313L263.542 508.813L270 505ZM239 452.5V445H176V452.5V460H239V452.5ZM148 505C145.231 511.97 145.232 511.971 145.234 511.971C145.235 511.972 145.237 511.973 145.239 511.973C145.242 511.974 145.245 511.976 145.249 511.977C145.257 511.98 145.266 511.984 145.277 511.988C145.299 511.997 145.327 512.008 145.361 512.021C145.429 512.048 145.522 512.083 145.639 512.128C145.874 512.216 146.205 512.34 146.631 512.492C147.481 512.798 148.708 513.222 150.285 513.723C153.437 514.727 157.993 516.044 163.745 517.351C175.24 519.964 191.562 522.552 211.02 522.5L211 515L210.98 507.5C192.858 507.548 177.68 505.136 167.07 502.724C161.769 501.519 157.622 500.317 154.834 499.43C153.44 498.986 152.387 498.622 151.701 498.375C151.358 498.252 151.106 498.158 150.95 498.099C150.872 498.07 150.817 498.049 150.787 498.037C150.772 498.031 150.763 498.027 150.76 498.026C150.759 498.026 150.759 498.026 150.76 498.026C150.761 498.027 150.762 498.027 150.764 498.028C150.764 498.028 150.766 498.029 150.766 498.029C150.768 498.029 150.769 498.03 148 505ZM211 515L211.02 522.5C230.468 522.448 245.817 519.86 256.394 517.243C261.682 515.934 265.776 514.619 268.595 513.609C270.005 513.104 271.095 512.676 271.857 512.363C272.238 512.206 272.537 512.078 272.752 511.984C272.86 511.937 272.947 511.899 273.012 511.869C273.045 511.854 273.073 511.842 273.095 511.832C273.106 511.826 273.116 511.822 273.125 511.818C273.129 511.816 273.133 511.814 273.137 511.813C273.138 511.812 273.141 511.811 273.142 511.81C273.144 511.809 273.146 511.808 270 505C266.854 498.192 266.856 498.191 266.858 498.19C266.858 498.19 266.86 498.189 266.861 498.188C266.864 498.187 266.866 498.186 266.867 498.186C266.871 498.184 266.873 498.183 266.873 498.183C266.875 498.182 266.871 498.184 266.862 498.188C266.845 498.196 266.807 498.213 266.748 498.238C266.631 498.289 266.433 498.374 266.155 498.489C265.599 498.717 264.723 499.063 263.537 499.488C261.165 500.337 257.556 501.503 252.791 502.682C243.263 505.04 229.112 507.452 210.98 507.5L211 515Z" fill="currentColor"/>
<path d="M148 505L176 452.5H239L270 505C270 505 248.58 514.9 211 515C173.42 515.1 148 505 148 505Z" fill="currentColor"/>
<path d="M176 452.5V445H171.5L169.382 448.971L176 452.5ZM148 505L141.382 501.471C140.378 503.354 140.223 505.577 140.958 507.581C141.693 509.585 143.247 511.182 145.231 511.97L148 505ZM270 505L273.146 511.808C275.071 510.919 276.529 509.256 277.16 507.232C277.791 505.209 277.536 503.012 276.458 501.187L270 505ZM239 452.5L245.458 448.687L243.281 445H239V452.5ZM176 452.5L169.382 448.971L141.382 501.471L148 505L154.618 508.529L182.618 456.029L176 452.5ZM270 505L276.458 501.187L245.458 448.687L239 452.5L232.542 456.313L263.542 508.813L270 505ZM239 452.5V445H176V452.5V460H239V452.5ZM148 505C145.231 511.97 145.232 511.971 145.234 511.971C145.235 511.972 145.237 511.973 145.239 511.973C145.242 511.974 145.245 511.976 145.249 511.977C145.257 511.98 145.266 511.984 145.277 511.988C145.299 511.997 145.327 512.008 145.361 512.021C145.429 512.048 145.522 512.083 145.639 512.128C145.874 512.216 146.205 512.34 146.631 512.492C147.481 512.798 148.708 513.222 150.285 513.723C153.437 514.727 157.993 516.044 163.745 517.351C175.24 519.964 191.562 522.552 211.02 522.5L211 515L210.98 507.5C192.858 507.548 177.68 505.136 167.07 502.724C161.769 501.519 157.622 500.317 154.834 499.43C153.44 498.986 152.387 498.622 151.701 498.375C151.358 498.252 151.106 498.158 150.95 498.099C150.872 498.07 150.817 498.049 150.787 498.037C150.772 498.031 150.763 498.027 150.76 498.026C150.759 498.026 150.759 498.026 150.76 498.026C150.761 498.027 150.762 498.027 150.764 498.028C150.764 498.028 150.766 498.029 150.766 498.029C150.768 498.029 150.769 498.03 148 505ZM211 515L211.02 522.5C230.468 522.448 245.817 519.86 256.394 517.243C261.682 515.934 265.776 514.619 268.595 513.609C270.005 513.104 271.095 512.676 271.857 512.363C272.238 512.206 272.537 512.078 272.752 511.984C272.86 511.937 272.947 511.899 273.012 511.869C273.045 511.854 273.073 511.842 273.095 511.832C273.106 511.826 273.116 511.822 273.125 511.818C273.129 511.816 273.133 511.814 273.137 511.813C273.138 511.812 273.141 511.811 273.142 511.81C273.144 511.809 273.146 511.808 270 505C266.854 498.192 266.856 498.191 266.858 498.19C266.858 498.19 266.86 498.189 266.861 498.188C266.864 498.187 266.866 498.186 266.867 498.186C266.871 498.184 266.873 498.183 266.873 498.183C266.875 498.182 266.871 498.184 266.862 498.188C266.845 498.196 266.807 498.213 266.748 498.238C266.631 498.289 266.433 498.374 266.155 498.489C265.599 498.717 264.723 499.063 263.537 499.488C261.165 500.337 257.556 501.503 252.791 502.682C243.263 505.04 229.112 507.452 210.98 507.5L211 515Z" fill="black" fill-opacity="0.27"/>
</g>
<mask id="mask1_63_112" style="mask-type:alpha" maskUnits="userSpaceOnUse" x="158" y="466" width="101" height="42">
<path d="M158.831 500.628C161.134 501.281 163.895 502.003 167.07 502.725C177.68 505.136 192.858 507.548 210.979 507.5C229.111 507.452 243.263 505.039 252.791 502.682C255.115 502.107 257.163 501.534 258.928 501L243.468 474.817C231.245 478.862 219.735 481 209.5 481C198.574 481 186.195 478.564 173.047 473.972L158.831 500.628Z" fill="black"/>
</mask>
<g mask="url(#mask1_63_112)">
<path d="M199 471.5L178.5 519L149 504.5L165 466.5L199 471.5Z" fill="white" fill-opacity="0.19"/>
<path d="M242.541 462.139L268 506L226 515.5L222.5 475.5L242.541 462.139Z" fill="black" fill-opacity="0.16"/>
</g>
<mask id="mask2_63_112" style="mask-type:alpha" maskUnits="userSpaceOnUse" x="0" y="0" width="419" height="481">
<path d="M404 240.5C404 113.949 315.042 15 209.5 15C103.958 15 15 113.949 15 240.5C15 301.735 46.6562 358.274 88.1455 399.98C108.796 420.739 131.506 437.418 153.127 448.836C174.975 460.374 194.677 466 209.5 466C224.323 466 244.025 460.374 265.873 448.836C287.494 437.418 310.204 420.739 330.854 399.98C372.344 358.274 404 301.735 404 240.5Z" fill="black"/>
</mask>
<g mask="url(#mask2_63_112)">
<path d="M350.528 183.052C349.636 182.139 348.372 182.32 347.865 185C340.5 224 326.753 253.177 299.5 288.5C264.055 334.44 232.53 367.043 179.082 375.54C152.09 379.832 105.132 354.773 94.5 358C89.4999 359.518 102.008 394.565 136.044 417.296C194 456 258.374 425.927 291.864 403.295C314.795 387.798 333.515 365.422 347.865 341.842C371.375 303.212 394 227.5 350.528 183.052Z" fill="black" fill-opacity="0.16"/>
<path d="M198.529 245.822C155.423 266.576 79.9746 273.581 70.8381 273.916C43.2054 274.929 26.1302 267.056 22 233.87C22.1766 214.659 23.8392 202.953 25.8745 191.429C27.2215 183.802 28.8583 175.041 30.753 167.73C32.6095 160.566 34.3371 153.217 47.0885 123.86C52.1234 112.269 57.544 102.498 63.2172 95.7406C69.6596 88.0667 78.5019 75.6575 84.411 70.0223C89.799 64.8841 97.7937 55.024 110.826 46.5446C118.394 41.6209 132.937 31.0149 142.09 25.5353C147.311 22.4094 159.513 16.4192 171.699 10.7779C181.878 6.06531 216.198 5.89567 227.5 6.99994C283.752 12.4961 330.449 67.5313 319 123.86C311.977 158.414 264.091 214.257 198.529 245.822Z" fill="white" fill-opacity="0.19"/>
<path d="M108 146C120.015 120.184 144.686 95.9069 166.086 104.941C179 110.393 166.01 147.062 160 160C148.658 184.416 121.801 194.846 105.032 182.537C99.4428 178.435 102.84 157.085 108 146Z" fill="white"/>
<path d="M75.6862 221.366C77.037 215.236 86.204 188.936 95.8088 198.249C101.992 206.872 100.024 218.156 97.2963 227.768C95.7021 233.386 88.8311 260.646 78.6196 248.921C72.1844 241.533 73.7664 230.079 75.6862 221.366Z" fill="white"/>
<path d="M140.031 445.236C139.106 443.763 136.308 441.298 134.664 439.299C113.564 413.644 95.2726 392.643 77.5762 358.186C57.1924 318.497 43.4845 294.135 42.2472 249.535C40.9235 201.818 50.2945 164.409 75.975 132.048C126.802 68 182.5 68.5 199.5 55C202.068 52.961 205.432 46.5989 202.5 44.4998C176.5 25.8825 72 56.5 41.0128 122.892C36.6833 132.168 32.7032 136.075 24.1914 156.905C20.4747 166.001 13.4009 177.25 11.686 194.553C11.2432 199.02 8.77183 206.557 8.25555 219.832C7.66925 234.906 8.25404 244.062 8.40892 246.486L8.41209 246.536C8.55969 248.848 10.7354 255.48 12.2943 264.523C13.6405 272.332 16.5289 279.693 18.2563 285.5C19.598 290.011 20.8342 295.763 22.7288 300.275C24.3748 304.195 27.2782 314.083 29.885 322.008C32.1392 328.862 35.6011 337.543 37.9491 342.598C42.8555 353.163 45.8814 359.508 48.6699 365.318C50.6199 369.381 54.986 372.316 62.5483 382.709C66.1308 387.633 69.515 393.514 75.076 398.789C81.6418 405.016 86.5431 408.328 93.114 414.868C98.6376 420.365 103.606 424.197 108.625 428.778C116.224 435.714 122.539 437.969 126.802 440.638C131.431 443.536 135.399 447.018 139.173 447C140.072 446.996 140.957 446.709 140.031 445.236Z" fill="white"/>
</g>
</g>
<defs>
<clipPath id="clip0_63_112">
<rect width="419" height="930" fill="white"/>
</clipPath>
</defs>
</svg>
