<svg xmlns="http://www.w3.org/2000/svg" width="2560" height="1440" fill="none"><g clip-path="url(#a)"><path fill="#E7CFB5" d="M0 0h2560v1440H0z"/><g stroke="#592F31" stroke-linecap="round" stroke-width="7" opacity=".1"><path d="m93-48.5 395.5 1854M588-48l395.5 1854M1083-85l395.5 1854M1578-48.5l395.5 1854M2073-48l395.5 1854M2610.25 77.75l-2922 623M2610.25 77.75l-2922 623M2882.25 522.75l-3493 745M2759.75 1036.25l-2424 517"/></g><g opacity=".8"><circle cx="2479.38" cy="1346.38" r="296.5" stroke="#592F31" stroke-width="28" transform="rotate(-2.044 2479.38 1346.38)"/><circle cx="2479.38" cy="1346.38" r="253.5" stroke="#592F31" stroke-width="8" transform="rotate(-2.044 2479.38 1346.38)"/><path fill="#592F31" d="M2625.87 1198.81 2541.12 1405l-116.8-110.93z"/><path fill="#E7CFB5" d="m2473.1 1277.33 138.02-66.91-129.65 136.51z"/><path fill="#592F31" d="m2552.04 1351.7 59.7-141.29-129.64 136.51z"/><path fill="#592F31" d="M2472.67 1101.86c.55-1.86 3.16-1.93 3.8-.09l83.99 239.14c.45 1.28-.48 2.63-1.83 2.67l-155.54 4.01a2.008 2.008 0 0 1-1.97-2.57z"/><path fill="#592F31" d="M2334.11 1208.05c-.78-1.65.88-3.4 2.57-2.7l198.72 81.68c1.3.53 1.66 2.2.69 3.22l-106.91 112.57c-.96 1.02-2.65.75-3.26-.52z"/><path fill="#E7CFB5" d="m2410.43 1356.16-66.91-138.02 136.51 129.64z"/><path fill="#592F31" d="m2484.8 1277.22-141.29-59.71 136.51 129.65z"/><path fill="#592F31" d="m2336.85 1497.7 85.06-205.9 116.17 110.33z"/><path fill="#592F31" d="m2488.53 1418.14-137.29 67.6 129.64-136.51z"/><path fill="#E7CFB5" d="m2405.4 1347.38-60.44 140.6 129.65-136.51z"/><path fill="#592F31" d="M2235.92 1355.06c-1.86-.55-1.93-3.17-.09-3.81l239.14-83.99c1.28-.45 2.63.48 2.67 1.84l4.01 155.53a2 2 0 0 1-2.57 1.97z"/><path fill="#592F31" d="m2630.8 1492.41-205.9-85.06 110.33-116.18z"/><path fill="#592F31" d="m2551.24 1340.73 67.6 137.29-136.51-129.64z"/><path fill="#E7CFB5" d="m2478.25 1418.21 140.6 60.43L2482.34 1349zM2424.51 1293.9l49.48-175.97 5.9 228.93z"/><path fill="#592F31" d="m2532.47 1291.11-58.48-173.18 5.9 228.93z"/><path fill="#592F31" d="m2729.81 1340.41-251.74-74.07 4.15 161.02z"/><path fill="#592F31" d="m2485.34 1596.8-86.96-247.59 161.03-4.15z"/><path fill="#E7CFB5" d="m2423.15 1294.3-173.18 58.49 228.92-5.91z"/><path fill="#592F31" d="m2425.93 1402.27-175.96-49.48 228.92-5.91zM2535.25 1398.82l-49.48 175.96-5.9-228.92z"/><path fill="#E7CFB5" d="m2427.29 1401.6 58.48 173.18-5.9-228.92z"/><path fill="#592F31" d="m2536.64 1399.41 173.18-58.48-228.93 5.9z"/><path fill="#E7CFB5" d="m2533.85 1291.45 175.97 49.48-228.93 5.9z"/><path stroke="#592F31" stroke-width="5" d="m2418.34 1287.43 123.1 118.86M2538.38 1287.36l-117.93 122.04"/><path fill="url(#b)" d="m2338.5 1210-40.5-38 3-3z"/><path fill="url(#c)" d="m2436.28 1262.72-60.21-147.33 5.45-1.67z"/><path fill="url(#d)" d="m2393.12 1305.74-152.1-46.87 2.16-5.27z"/><path fill="url(#e)" d="m2518.58 1266.06 59.44-147.64 5.07 2.59z"/><path fill="url(#f)" d="m2395.41 1389.55-145.14 65.34-1.86-5.39z"/></g><path stroke="#592F31" stroke-dasharray="65 65" stroke-width="12" d="M2171.9 1354.72 66 1330M2479.11 1041.37 2508 190" opacity=".7"/><g filter="url(#g)" opacity=".8"><mask id="h" fill="#fff"><path d="M2655 1575H-194V-236h2849zM495.567 75.522c-33.362-8.438-68.211-8.977-101.782-1.439l-1.597.365-85.623 19.904c-85.441 19.861-132.893 111.393-99.879 192.664l.449 1.121c18.66 47.128 9.486 100.741-23.782 138.983l-.797.907-64.15 72.437C58.728 567.851 35.733 660.141 56.817 747.65L92.05 893.872l.556 2.357a268.5 268.5 0 0 1 5.773 35.801l15.486 167.39.162 1.68c7.125 71.04 48.528 134.16 110.938 168.97l1.385.77c58.712 32.2 128.925 35.59 190.798 9.92l14.669-6.07c34.267-14.16 68.509-28.07 96.197-38.89 15.825-6.18 29.481-11.33 39.767-14.94 5.147-1.8 9.414-3.21 12.667-4.15 3.435-1.01 5.297-1.36 5.915-1.36-.006 0 .1 0 .368.04.253.03.586.08 1.007.16.844.16 1.955.39 3.337.72 2.761.65 6.485 1.62 11.098 2.88 9.219 2.53 21.877 6.2 37.237 10.78 30.716 9.16 72.162 21.92 118.359 36.34 92.39 28.84 203.736 64.29 286.142 90.71l1.98.63a276.3 276.3 0 0 0 63.2 11.91l327.3 22.79 2.31.15c48.54 2.96 96.78-7.31 141.72-25.33l3.23-1.29c33.58-13.33 75.34-27.97 117.06-37.54 43.16-9.9 85.85-14.29 119.3-6.54l5.5 1.26c57.92 13.31 149.85 32.85 224.82 48.57l1.87.39c79.24 16.04 161.66-3.71 223.98-55.41l6.76-5.63c33.97-28.28 69.65-58.71 96.03-83.07l1.77-1.62c8.92-8.04 18.48-15.24 28.8-21.25l1.36-.8c56.67-33.73 87.66-98.13 78.67-163.47l-.23-1.55-10.99-74.544a268.7 268.7 0 0 1 4.99-103.649l25.78-104.175.36-1.501a271.36 271.36 0 0 0-22.27-187.418l-.71-1.374-23.62-45.465a161.73 161.73 0 0 1-2.36-144.405l.65-1.359c26.77-57.192 19.35-124.563-19.23-174.56l-.92-1.187-17.68-22.497c-54.12-68.883-144.61-97.927-228.62-73.571l-1.98.585-125.96 37.831a268.52 268.52 0 0 1-173.85-6.637l-2.64-1.035-83.34-33.157c-62.34-24.8-131.5-25.972-195.22-5.324l-1.51.493c-46.97 15.493-97.96 31.8-139.86 45.055L1453 146.77c-45.52 14.346-93.94 16.017-140.35 5.012l-2.21-.533c-66.54-16.378-167.12-41.336-251.69-63.17l-16.69-4.321c-51.724-13.443-106.141-12.274-157.187 3.462l-2.429.76c-33.312 10.594-68.148 21.423-96.091 29.601-13.976 4.09-26.199 7.509-35.634 9.902-4.72 1.198-8.711 2.13-11.859 2.761-3.232.648-5.329.926-6.391.926-1.363 0-4.585-.43-9.709-1.361-5.001-.909-11.526-2.239-19.295-3.917-15.534-3.356-35.948-8.082-58.896-13.558-40.153-9.583-88.01-21.449-130.941-32.256z"/></mask><path fill="#C7A077" d="M2655 1575H-194V-236h2849zM495.567 75.522c-33.362-8.438-68.211-8.977-101.782-1.439l-1.597.365-85.623 19.904c-85.441 19.861-132.893 111.393-99.879 192.664l.449 1.121c18.66 47.128 9.486 100.741-23.782 138.983l-.797.907-64.15 72.437C58.728 567.851 35.733 660.141 56.817 747.65L92.05 893.872l.556 2.357a268.5 268.5 0 0 1 5.773 35.801l15.486 167.39.162 1.68c7.125 71.04 48.528 134.16 110.938 168.97l1.385.77c58.712 32.2 128.925 35.59 190.798 9.92l14.669-6.07c34.267-14.16 68.509-28.07 96.197-38.89 15.825-6.18 29.481-11.33 39.767-14.94 5.147-1.8 9.414-3.21 12.667-4.15 3.435-1.01 5.297-1.36 5.915-1.36-.006 0 .1 0 .368.04.253.03.586.08 1.007.16.844.16 1.955.39 3.337.72 2.761.65 6.485 1.62 11.098 2.88 9.219 2.53 21.877 6.2 37.237 10.78 30.716 9.16 72.162 21.92 118.359 36.34 92.39 28.84 203.736 64.29 286.142 90.71l1.98.63a276.3 276.3 0 0 0 63.2 11.91l327.3 22.79 2.31.15c48.54 2.96 96.78-7.31 141.72-25.33l3.23-1.29c33.58-13.33 75.34-27.97 117.06-37.54 43.16-9.9 85.85-14.29 119.3-6.54l5.5 1.26c57.92 13.31 149.85 32.85 224.82 48.57l1.87.39c79.24 16.04 161.66-3.71 223.98-55.41l6.76-5.63c33.97-28.28 69.65-58.71 96.03-83.07l1.77-1.62c8.92-8.04 18.48-15.24 28.8-21.25l1.36-.8c56.67-33.73 87.66-98.13 78.67-163.47l-.23-1.55-10.99-74.544a268.7 268.7 0 0 1 4.99-103.649l25.78-104.175.36-1.501a271.36 271.36 0 0 0-22.27-187.418l-.71-1.374-23.62-45.465a161.73 161.73 0 0 1-2.36-144.405l.65-1.359c26.77-57.192 19.35-124.563-19.23-174.56l-.92-1.187-17.68-22.497c-54.12-68.883-144.61-97.927-228.62-73.571l-1.98.585-125.96 37.831a268.52 268.52 0 0 1-173.85-6.637l-2.64-1.035-83.34-33.157c-62.34-24.8-131.5-25.972-195.22-5.324l-1.51.493c-46.97 15.493-97.96 31.8-139.86 45.055L1453 146.77c-45.52 14.346-93.94 16.017-140.35 5.012l-2.21-.533c-66.54-16.378-167.12-41.336-251.69-63.17l-16.69-4.321c-51.724-13.443-106.141-12.274-157.187 3.462l-2.429.76c-33.312 10.594-68.148 21.423-96.091 29.601-13.976 4.09-26.199 7.509-35.634 9.902-4.72 1.198-8.711 2.13-11.859 2.761-3.232.648-5.329.926-6.391.926-1.363 0-4.585-.43-9.709-1.361-5.001-.909-11.526-2.239-19.295-3.917-15.534-3.356-35.948-8.082-58.896-13.558-40.153-9.583-88.01-21.449-130.941-32.256z"/><path fill="#000" d="M2655 1575v1h1v-1zm-2849 0h-1v1h1zm0-1811v-1h-1v1zm2849 0h1v-1h-1zM495.567 75.522l-.245.969h.001zm-101.782-1.439-.219-.976-.004.001zm-1.597.365-.223-.975-.004.001zm-85.623 19.904.227.974zm-99.879 192.664.928-.372-.002-.005zm.449 1.121.93-.368-.002-.004zM183.353 427.12l.751.66.003-.004zm-.797.907.748.663.003-.003zm-64.15 72.437.749.663zM56.817 747.65l-.972.235zM92.05 893.872l.973-.23-.001-.004zm.556 2.357.975-.226-.001-.004zm5.773 35.801.996-.092zm15.486 167.39-.996.09.001.01zm.162 1.68-.995.1zm110.938 168.97-.487.88h.003zm1.385.77-.484.87.003.01zm190.798 9.92-.382-.92h-.001zm14.669-6.07-.381-.93h-.001zm96.197-38.89-.364-.93zm39.767-14.94-.331-.94zm12.667-4.15-.28-.97zm5.915-1.36.004 1-.004-2zm.368.04.128-.99zm1.007.16.181-.98zm3.337.72.23-.97zm11.098 2.88.264-.96zm37.237 10.78.286-.96zm118.359 36.34.298-.95zm286.142 90.71-.31.95.01.01zm1.98.63-.3.95h.01zm63.2 11.91.07-.99zm327.3 22.79-.07 1zm2.31.15-.06 1zm141.72-25.33-.37-.93zm3.23-1.29-.37-.93zm117.06-37.54-.22-.98zm119.3-6.54-.23.97h.01zm5.5 1.26-.23.98zm224.82 48.57-.21.98h.01zm1.87.39-.2.98zm223.98-55.41.64.77zm6.76-5.63.64.77zm96.03-83.07-.68-.74zm1.77-1.62-.67-.75v.01zm28.8-21.25.51.87v-.01zm1.36-.8.5.86h.01zm78.67-163.47.99-.13v-.01zm-.23-1.55.99-.14v-.01zm-10.99-74.544.99-.146zm4.99-103.649.97.241v-.001zm25.78-104.175.97.241v-.003zm.36-1.501.98.237v-.003zm-22.27-187.418.89-.456-.01-.003zm-.71-1.374.89-.459-.01-.003zm-23.62-45.465.88-.461zm-2.36-144.405.91.432v-.004zm.65-1.359.9.428v-.004zm-19.23-174.56.8-.61-.01-.004zm-.92-1.187.79-.614v-.004zm-17.68-22.497-.78.618zm-228.62-73.571-.27-.961-.01.001zm-1.98.585-.28-.96-.01.002zm-125.96 37.831.28.957zm-173.85-6.637-.36.931v.002zm-2.64-1.035-.37.929.01.002zm-83.34-33.157-.37.93zm-195.22-5.324-.31-.951zm-1.51.493-.31-.95zm-139.86 45.055.3.954zM1453 146.77l.3.953zm-140.35 5.012-.23.972v.001zm-2.21-.533-.24.971.01.001zm-251.69-63.17-.25.968zm-16.69-4.321-.25.968zM884.873 87.22l-.295-.956-.004.001zm-2.429.76-.299-.954-.004.002zm-96.091 29.601.28.96zm-35.634 9.902.246.97zm-11.859 2.761.197.981zm-6.391.926v1zm-9.709-1.361-.179.983zm-19.295-3.917-.211.977zm-58.896-13.558-.232.973zM513.628 80.078l-.245.97h.001zM2655 1575v-1H-194v2h2849zm-2849 0h1V-236h-2v1811zm0-1811v1h2849v-2H-194zm2849 0h-1v1811h2V-236zM495.567 75.522l.246-.97c-33.513-8.475-68.522-9.017-102.247-1.445l.219.976.219.976c33.416-7.503 68.107-6.967 101.318 1.432zm-101.782-1.439-.223-.975-1.597.365.223.975.222.975 1.598-.365zm-1.597.365-.227-.974-85.622 19.903.226.975.227.974 85.622-19.904zm-85.623 19.904-.226-.975c-86.041 20.001-133.825 112.175-100.58 194.015l.927-.376.926-.377c-32.782-80.701 14.337-171.591 99.18-191.313zm-99.879 192.664-.929.372.45 1.121.928-.372.928-.372-.449-1.121zm.449 1.121-.93.368c18.522 46.781 9.416 99.998-23.607 137.959l.755.656.754.656c33.513-38.524 42.755-92.532 23.958-140.007zM183.353 427.12l-.752-.66-.797.907.752.66.751.66.797-.907zm-.797.907-.749-.663-64.149 72.437.748.663.749.663 64.149-72.437zm-64.15 72.437-.748-.663c-59.895 67.631-82.974 160.257-61.813 248.084l.972-.235.973-.234c-21.009-87.191 1.904-179.147 61.365-246.289zM56.817 747.65l-.972.235 35.232 146.221.972-.234.972-.234L57.79 747.416zM92.05 893.872l-.973.23.556 2.356.974-.229.973-.23-.557-2.357zm.556 2.357-.974.225a267.5 267.5 0 0 1 5.751 35.668l.996-.092.996-.092a269.5 269.5 0 0 0-5.794-35.935zm5.773 35.801-.996.092 15.486 167.388.996-.09.996-.09-15.486-167.392zm15.486 167.39-.995.1.162 1.68.995-.1.996-.1-.162-1.68zm.162 1.68-.995.1c7.158 71.36 48.75 134.77 111.446 169.75l.487-.88.487-.87c-62.125-34.66-103.338-97.49-110.43-168.2zm110.938 168.97-.484.88 1.385.76.484-.87.483-.88-1.384-.76zm1.385.77-.481.88c58.983 32.34 129.513 35.75 191.663 9.96l-.384-.92-.383-.92c-61.597 25.55-131.492 22.17-189.935-9.88zm190.798 9.92.383.92 14.669-6.07-.383-.92-.382-.93-14.669 6.08zm14.669-6.07.382.92c34.265-14.15 68.499-28.06 96.178-38.87l-.363-.94-.364-.93c-27.697 10.82-61.945 24.74-96.214 38.89zm96.197-38.89.363.94c15.822-6.18 29.466-11.33 39.735-14.93l-.331-.95-.331-.94c-10.302 3.61-23.971 8.77-39.8 14.95zm39.767-14.94.331.95c5.14-1.81 9.387-3.2 12.616-4.14l-.28-.96-.28-.97c-3.278.96-7.564 2.37-12.718 4.18zm12.667-4.15.28.96a62 62 0 0 1 3.948-1.04c.974-.21 1.498-.28 1.687-.28v-2c-.429 0-1.145.11-2.116.33-1 .22-2.347.56-4.079 1.06zm5.915-1.36-.003-1h-.091c-.01.01-.036.01-.051.01-.023 0-.086.02-.124.03-.078.02-.346.17-.507.33-.214.49.011 1.27.237 1.47.09.05.228.11.273.12a.3.3 0 0 0 .085.02c.03.01.055.01.063.01.011 0 .02.01.025.01h.091c.043.01.122.01.243.03l.127-.99.128-.99c-.148-.02-.256-.03-.331-.04-.037 0-.066-.01-.088-.01h-.023.039c.005.01.014.01.025.01.009 0 .033 0 .063.01a.3.3 0 0 1 .085.02c.045.01.183.07.273.12.226.2.451.98.237 1.47-.161.16-.428.31-.507.33-.038.01-.101.03-.124.03-.015 0-.041.01-.051.01h-.09zm.368.04-.127.99c.23.03.544.08.953.15l.181-.98.181-.98c-.434-.08-.785-.14-1.06-.17zm1.007.16-.181.98c.821.15 1.915.39 3.289.71l.229-.97.23-.97a71 71 0 0 0-3.386-.73zm3.337.72-.229.97c2.743.65 6.454 1.61 11.063 2.88l.264-.97.264-.96c-4.617-1.27-8.355-2.24-11.132-2.89zm11.098 2.88-.264.97c9.208 2.52 21.857 6.19 37.215 10.77l.286-.96.286-.96c-15.363-4.58-28.029-8.25-37.259-10.78zm37.237 10.78-.286.96c30.71 9.15 72.151 21.92 118.347 36.34l.298-.96.298-.95c-46.199-14.42-87.649-27.19-118.371-36.35zm118.359 36.34-.298.96c92.386 28.84 203.73 64.28 286.13 90.7l.31-.95.3-.95c-82.402-26.42-193.751-61.87-286.144-90.71zm286.142 90.71-.3.96 1.98.62.3-.95.31-.95-1.99-.63zm1.98.63-.29.95c20.6 6.44 41.88 10.46 63.42 11.96l.07-1 .07-.99a275.5 275.5 0 0 1-62.97-11.87zm63.2 11.91-.07 1 327.3 22.79.07-1 .07-.99-327.3-22.79zm327.3 22.79-.07 1 2.32.15.06-1 .07-.99-2.32-.15zm2.31.15-.06 1c48.72 2.97 97.11-7.35 142.16-25.4l-.38-.93-.37-.93c-44.84 17.98-92.93 28.21-141.29 25.27zm141.72-25.33.37.93 3.23-1.29-.37-.93-.37-.93-3.23 1.29zm3.23-1.29.37.93c33.55-13.32 75.26-27.94 116.91-37.5l-.22-.97-.22-.98c-41.79 9.59-83.6 24.25-117.21 37.59zm117.06-37.54.22.97c43.12-9.89 85.62-14.23 118.85-6.54l.23-.97.23-.98c-33.68-7.79-76.55-3.37-119.75 6.54zm119.3-6.54-.22.97 5.49 1.27.23-.98.22-.97-5.5-1.27zm5.5 1.26-.23.98c57.94 13.3 149.87 32.85 224.84 48.57l.21-.98.21-.98c-74.98-15.71-166.89-35.26-224.81-48.56zm224.82 48.57-.2.98 1.87.39.2-.98.2-.98-1.87-.39zm1.87.39-.2.98c79.53 16.1 162.26-3.72 224.82-55.62l-.64-.77-.64-.77c-62.08 51.51-144.19 71.18-223.14 55.2zm223.98-55.41.64.77 6.76-5.63-.64-.77-.63-.76-6.77 5.62zm6.76-5.63.64.77c33.98-28.28 69.67-58.73 96.07-83.11l-.68-.73-.68-.74c-26.36 24.34-62.02 54.77-95.99 83.05zm96.03-83.07.67.73 1.78-1.62-.68-.73-.67-.74-1.78 1.62zm1.77-1.62.67.74c8.87-8 18.38-15.15 28.64-21.12l-.51-.87-.5-.86c-10.39 6.05-20.01 13.28-28.97 21.36zm28.8-21.25.51.86 1.35-.8-.5-.86-.51-.86-1.35.8zm1.36-.8.51.86c57.02-33.94 88.2-98.73 79.15-164.46l-.99.13-1 .14c8.95 64.94-21.85 128.95-78.18 162.47zm78.67-163.47.99-.14-.23-1.55-.99.14-.99.14.23 1.55zm-.23-1.55.99-.15-10.99-74.54-.99.146-.98.146 10.98 74.538zm-10.99-74.544.99-.146a267.7 267.7 0 0 1 4.97-103.262l-.97-.241-.97-.24a269.3 269.3 0 0 0-5 104.035zm4.99-103.649.97.24 25.78-104.174-.97-.241-.97-.24-25.78 104.175zm25.78-104.175.97.238.37-1.502-.98-.237-.97-.238-.36 1.502zm.36-1.501.98.234a272.4 272.4 0 0 0-22.36-188.108l-.89.456-.89.456a270.4 270.4 0 0 1 22.19 186.727zm-22.27-187.418.88-.459-.7-1.374-.89.459-.89.458.71 1.374zm-.71-1.374.88-.462-23.62-45.464-.88.461-.89.461 23.62 45.465zm-23.62-45.465.88-.461a160.7 160.7 0 0 1-2.33-143.512l-.91-.432-.9-.432c-22.08 46.114-21.21 99.927 2.37 145.298zm-2.36-144.405.91.428.64-1.359-.9-.428-.91-.428-.64 1.359zm.65-1.359.9.424c26.93-57.532 19.47-125.301-19.33-175.594l-.8.61-.79.611c38.35 49.701 45.72 116.672 19.11 173.525zm-19.23-174.56.79-.614-.92-1.187-.79.614-.79.614.93 1.188zm-.92-1.187.79-.618-17.68-22.497-.79.618-.78.618 17.67 22.497zm-17.68-22.497.79-.618c-54.38-69.204-145.29-98.383-229.68-73.914l.27.961.28.96c83.62-24.243 173.68 4.666 227.56 73.229zm-228.62-73.571-.28-.96-1.98.585.28.96.28.959 1.99-.585zm-1.98.585-.29-.958-125.96 37.831.29.958.28.957 125.97-37.831zm-125.96 37.831-.29-.958a267.5 267.5 0 0 1-173.2-6.612l-.36.933-.36.933a269.5 269.5 0 0 0 174.49 6.661zm-173.85-6.637.37-.931-2.64-1.035-.37.931-.36.931 2.64 1.035zm-2.64-1.035.37-.929-83.34-33.157-.37.929-.37.93 83.34 33.156zm-83.34-33.157.37-.929c-62.56-24.89-131.97-26.063-195.9-5.346l.31.951.31.952c63.51-20.58 132.43-19.409 194.54 5.302zm-195.22-5.324-.31-.95-1.51.492.31.95.31.95 1.51-.491zm-1.51.493-.31-.95c-46.96 15.492-97.95 31.797-139.85 45.052l.3.953.3.954c41.91-13.257 92.9-29.564 139.88-45.06zm-139.86 45.055-.3-.953-17.36 5.483.3.954.3.953 17.36-5.483zM1453 146.77l-.3-.954c-45.34 14.292-93.58 15.957-139.82 4.993l-.23.973-.23.973c46.59 11.047 95.19 9.37 140.88-5.032zm-140.35 5.012.24-.972-2.21-.533-.24.972-.23.972 2.21.533zm-2.21-.533.24-.971c-66.54-16.378-167.11-41.335-251.68-63.167l-.25.968-.25.968c84.58 21.836 185.16 46.795 251.7 63.173zm-251.69-63.17.25-.968-16.68-4.321-.26.968-.25.968 16.69 4.321zm-16.69-4.321.26-.968c-51.911-13.49-106.517-12.317-157.742 3.474l.295.956.295.955c50.868-15.681 105.096-16.845 156.642-3.45zM884.873 87.22l-.299-.955-2.429.761.299.955.299.954 2.429-.761zm-2.429.76-.303-.953c-33.31 10.593-68.137 21.42-96.069 29.594l.281.96.28.96c27.955-8.181 62.799-19.013 96.114-29.608zm-96.091 29.601-.281-.96c-13.971 4.089-26.181 7.504-35.599 9.893l.246.969.246.97c9.452-2.398 21.689-5.821 35.668-9.912zm-35.634 9.902-.246-.969c-4.712 1.195-8.685 2.123-11.809 2.75l.196.98.197.981c3.171-.636 7.18-1.573 11.908-2.772zm-11.859 2.761-.196-.98c-3.235.648-5.243.906-6.195.906v2c1.172 0 3.357-.298 6.588-.945zm-6.391.926v-1c-1.256 0-4.386-.41-9.53-1.345l-.179.984-.179.983c5.103.928 8.418 1.378 9.888 1.378zm-9.709-1.361.179-.984c-4.985-.906-11.498-2.234-19.263-3.911l-.211.978-.211.977c7.774 1.679 14.311 3.012 19.327 3.923zm-19.295-3.917.211-.978c-15.524-3.353-35.93-8.077-58.875-13.553l-.232.973-.232.973c22.95 5.477 43.372 10.205 58.917 13.562zm-58.896-13.558.232-.973c-40.148-9.581-88-21.446-130.929-32.253l-.244.97-.244.97c42.932 10.807 90.794 22.675 130.953 32.259zM513.628 80.078l.245-.97-18.061-4.556-.245.97-.244.97 18.06 4.556z" mask="url(#h)"/></g><path stroke="#592F31" stroke-linecap="round" stroke-width="7" d="M-88.986 876.094 56.331 1521.95m-87.502-663.682 145.316 645.852"/><path fill="#592F31" d="M-61 991.475-5.354 979l31.938 142.464-55.646 12.475zM-3 1252.47l55.646-12.475 31.938 142.464-55.646 12.475z"/><path stroke="#592F31" stroke-linecap="round" stroke-width="7" d="M606.326-91.043-40.141 51.51m664.046-84.662L-22.562 109.4"/><path fill="#592F31" d="m490.826-63.55 12.237 55.698-142.6 31.328-12.236-55.698zM229.58-6.669l12.237 55.699-142.6 31.328L86.982 24.66z"/><path stroke="#592F31" stroke-linecap="round" stroke-width="7" d="m2417.01-191.906 145.32 645.852m-87.5-663.678 145.32 645.852"/><path fill="#592F31" d="M2445-76.525 2500.646-89l31.938 142.464-55.646 12.475zM2503 184.475 2558.646 172l31.938 142.464-55.646 12.475z"/></g><defs><linearGradient id="b" x1="2315.75" x2="2315.75" y1="1169.5" y2="1205.5" gradientUnits="userSpaceOnUse"><stop offset=".279" stop-color="#592F31"/><stop offset="1" stop-color="#592F31" stop-opacity="0"/></linearGradient><linearGradient id="c" x1="2422.19" x2="2381.29" y1="1129.88" y2="1224.99" gradientUnits="userSpaceOnUse"><stop offset=".442" stop-color="#592F31"/><stop offset="1" stop-color="#592F31" stop-opacity="0"/></linearGradient><linearGradient id="d" x1="2281.47" x2="2329.07" y1="1232.4" y2="1324.34" gradientUnits="userSpaceOnUse"><stop offset=".442" stop-color="#592F31"/><stop offset="1" stop-color="#592F31" stop-opacity="0"/></linearGradient><linearGradient id="e" x1="2601.01" x2="2505.41" y1="1160.94" y2="1200.68" gradientUnits="userSpaceOnUse"><stop offset=".442" stop-color="#592F31"/><stop offset="1" stop-color="#592F31" stop-opacity="0"/></linearGradient><linearGradient id="f" x1="2263.14" x2="2359.62" y1="1408.3" y2="1445.84" gradientUnits="userSpaceOnUse"><stop offset=".442" stop-color="#592F31"/><stop offset="1" stop-color="#592F31" stop-opacity="0"/></linearGradient><clipPath id="a"><path fill="#fff" d="M0 0h2560v1440H0z"/></clipPath><filter id="g" width="3649" height="2611" x="-594" y="-636" color-interpolation-filters="sRGB" filterUnits="userSpaceOnUse"><feFlood flood-opacity="0" result="BackgroundImageFix"/><feBlend in="SourceGraphic" in2="BackgroundImageFix" result="shape"/><feGaussianBlur result="effect1_foregroundBlur_70_39" stdDeviation="200"/></filter></defs></svg>