<svg xmlns="http://www.w3.org/2000/svg" width="146" height="141" fill="none"><path fill="#fff" stroke="#fff" stroke-linecap="round" stroke-width="26" d="M70.256 76.87c2.536-9.869-.41-35.435 3.165-37.788s59.12-27.624 58.958-24.911c-.477 5.23-2.412 14.555-9.149 31.6-5.164 10.436-13.66 24.282-22.447 35.257s-17.397 19.097-23.786 23.91c-9.65 7.271-16.793 11.793-28.501 14.914-19.052 5.077-36.299 9.596-35.467 6.789.329-1.111 4.257-4.702 12.963-10.542 12.54-8.41 23.136-14.933 29.05-20.973 7.614-7.776 14.048-13.719 15.214-18.255Z"/></svg>