<svg width="63" height="61" viewBox="0 0 63 61" fill="none" xmlns="http://www.w3.org/2000/svg">
<path fill-rule="evenodd" clip-rule="evenodd" d="M12.9188 1.6033C13.9504 0.778327 15.2448 0.352773 16.5648 0.404627C17.8847 0.456481 19.1417 0.98227 20.1054 1.88563C25.2481 6.70355 30.2421 11.6779 35.0801 16.8016C38.7547 12.3661 42.3186 7.84006 45.7684 3.22763C47.9354 0.330963 52.2878 0.257631 54.5318 3.13963L61.1868 11.7013C62.8001 13.7766 62.7304 16.732 60.9594 18.723C56.9355 23.2192 52.7237 27.5436 48.3351 31.6846C52.7161 36.9025 56.9456 42.2459 61.0181 47.708C62.9064 50.2416 62.2648 53.824 59.6578 55.562L54.7774 58.818C53.6921 59.5405 52.3855 59.8545 51.0904 59.7041C49.7952 59.5537 48.5954 58.9487 47.7045 57.9966C43.3061 53.3021 38.7747 48.734 34.1158 44.298C27.9044 49.5046 21.5391 54.5353 15.1518 59.5366C14.5378 60.0165 13.8289 60.3605 13.072 60.5457C12.3151 60.731 11.5275 60.7533 10.7613 60.6111C9.99515 60.469 9.26793 60.1657 8.62784 59.7213C7.98774 59.2768 7.44939 58.7015 7.04845 58.0333L4.98778 54.6086C4.34036 53.5286 4.08257 52.2594 4.25737 51.0124C4.43218 49.7654 5.02902 48.616 5.94845 47.7556C11.1754 42.8619 16.2453 37.803 21.1504 32.5866C15.3277 27.5976 9.34034 22.8038 3.19845 18.2133C2.52435 17.7096 1.97456 17.0581 1.59124 16.309C1.20793 15.5598 1.00127 14.7328 0.987108 13.8914C0.972949 13.05 1.15167 12.2166 1.50956 11.4549C1.86745 10.6933 2.39501 10.0238 3.05178 9.49763L12.9188 1.6033Z" fill="#4A2D24"/>
</svg>
