<svg width="24" height="24" xmlns="http://www.w3.org/2000/svg" fill="none">

 <g>
  <title>Layer 1</title>
  <path id="svg_1" fill="currentColor" d="m3.0625,3.0625l8,0l0,10l-8,0l0,-10zm2,2l0,6l4,0l-4.9375,0.75l0.9375,-6.75zm8,-2l8,0l0,6l-8,0l0,-6zm7.4375,5.6875l-5.4375,-1.6875l4,0l0,-2l1.4375,3.6875zm-7.4375,2.3125l8,0l0,10l-8,0l0,-10zm2.375,8.3125l-0.375,-0.3125l4,0l0.5625,0.75l-4.1875,-0.4375zm-12.375,-4.3125l8,0l0,6l-8,0l0,-6zm1.6875,4.1875l0.3125,-0.1875l4,0l0.5,0.3125l-4.8125,-0.125z"/>
 </g>
</svg>