<?xml version="1.0" encoding="utf-8"?>

<!-- Uploaded to: SVG Repo, www.svgrepo.com, Generator: SVG Repo Mixer Tools -->
<svg fill="currentColor" height="800px" width="800px" version="1.1" id="Layer_1" xmlns="http://www.w3.org/2000/svg" xmlns:xlink="http://www.w3.org/1999/xlink" 
	 viewBox="0 0 24 24" xml:space="preserve">
<polygon fill="currentColor" points="8,3 8,5 12,5 12,8 11,8 11,11 10,11 10,14 9,14 9,17 8,17 8,19 4,19 4,21 15,21 15,20 15,19 11,19 11,16 12,16 
	12,13 13,13 13,10 14,10 14,7 15,7 15,5 19,5 19,3 "/>
</svg>