<svg width="44" height="41" viewBox="0 0 44 41" fill="none" xmlns="http://www.w3.org/2000/svg">
<path d="M18.2383 3.40622C19.5109 -0.113991 24.4893 -0.113994 25.7619 3.40621L28.3638 10.604C28.9366 12.1885 30.4408 13.2442 32.1256 13.2442H39.5593C43.5366 13.2442 45.0765 18.4186 41.7464 20.5933L36.4921 24.0245C34.9386 25.039 34.2867 26.9886 34.9175 28.7335L37.0926 34.7506C38.3981 38.362 34.359 41.5593 31.1437 39.4595L24.1872 34.9167C22.8583 34.0488 21.1419 34.0488 19.813 34.9167L12.8565 39.4595C9.64119 41.5592 5.60212 38.362 6.90763 34.7506L9.08275 28.7335C9.71351 26.9886 9.06157 25.039 7.50809 24.0245L2.25384 20.5933C-1.07627 18.4186 0.46364 13.2442 4.44094 13.2442H11.8746C13.5594 13.2442 15.0636 12.1885 15.6364 10.604L18.2383 3.40622Z" fill="#A49E8C"/>
</svg>
