<svg xmlns="http://www.w3.org/2000/svg" width="48" height="54" fill="none"><path fill="#E7D4BE" d="M3 53h44V2.5l-5 2-37.5 46z"/><path stroke="#592F31" stroke-width="3" d="M47 1.5h-.5L40 4 4.5 49.5l-2 2v2"/><path stroke="#7C4A33" stroke-opacity=".5" stroke-width="4" d="M47 17h-4.5L29 31l-5.5 18v4"/><g filter="url(#a)"><path fill="#E7D2BD" d="M43.51 25.827 42 3.5l-5.025 1.413S1.5 47 2.5 47.5s42.574 3.358 42.574 3.358z"/></g><path stroke="#592F31" stroke-width="3" d="M43.51 25.827 42 3.5l-5.025 1.413S1.5 47 2.5 47.5s42.574 3.358 42.574 3.358z"/><defs><filter id="a" width="47.798" height="53.016" x=".48" y="-.044" color-interpolation-filters="sRGB" filterUnits="userSpaceOnUse"><feFlood flood-opacity="0" result="BackgroundImageFix"/><feBlend in="SourceGraphic" in2="BackgroundImageFix" result="shape"/><feColorMatrix in="SourceAlpha" result="hardAlpha" values="0 0 0 0 0 0 0 0 0 0 0 0 0 0 0 0 0 0 127 0"/><feOffset dx="-5" dy="5"/><feGaussianBlur stdDeviation=".25"/><feComposite in2="hardAlpha" k2="-1" k3="1" operator="arithmetic"/><feColorMatrix values="0 0 0 0 0.968627 0 0 0 0 0.921569 0 0 0 0 0.878431 0 0 0 1 0"/><feBlend in2="shape" result="effect1_innerShadow_95_1491"/><feColorMatrix in="SourceAlpha" result="hardAlpha" values="0 0 0 0 0 0 0 0 0 0 0 0 0 0 0 0 0 0 127 0"/><feOffset dx="10" dy="-5"/><feGaussianBlur stdDeviation=".8"/><feComposite in2="hardAlpha" k2="-1" k3="1" operator="arithmetic"/><feColorMatrix values="0 0 0 0 0.854902 0 0 0 0 0.752941 0 0 0 0 0.647059 0 0 0 1 0"/><feBlend in2="effect1_innerShadow_95_1491" result="effect2_innerShadow_95_1491"/></filter></defs></svg>