<svg width="21" height="21" viewBox="0 0 21 21" fill="none" xmlns="http://www.w3.org/2000/svg">
<path fill-rule="evenodd" clip-rule="evenodd" d="M10.9727 20.5667C16.4957 20.5667 20.9727 16.0897 20.9727 10.5667C20.9727 5.04365 16.4957 0.56665 10.9727 0.56665C5.44966 0.56665 0.972656 5.04365 0.972656 10.5667C0.972656 16.0897 5.44966 20.5667 10.9727 20.5667ZM10.9677 14.8087C11.1551 14.6211 11.2604 14.3668 11.2604 14.1017C11.2604 13.8365 11.1551 13.5822 10.9677 13.3947L9.14066 11.5667H15.2167C15.4819 11.5667 15.7362 11.4613 15.9238 11.2738C16.1113 11.0862 16.2167 10.8319 16.2167 10.5667C16.2167 10.3014 16.1113 10.0471 15.9238 9.85954C15.7362 9.67201 15.4819 9.56665 15.2167 9.56665H9.14066L10.9697 7.73765C11.1572 7.55001 11.2625 7.29557 11.2624 7.0303C11.2623 6.76503 11.1568 6.51066 10.9692 6.32315C10.7815 6.13564 10.5271 6.03035 10.2618 6.03045C9.99653 6.03054 9.74216 6.13601 9.55466 6.32365L6.01966 9.85965C5.83219 10.0472 5.72687 10.3015 5.72687 10.5667C5.72687 10.8318 5.83219 11.0861 6.01966 11.2737L9.55466 14.8087C9.64753 14.9016 9.75782 14.9754 9.87922 15.0257C10.0006 15.076 10.1307 15.1019 10.2622 15.1019C10.3936 15.1019 10.5237 15.076 10.6451 15.0257C10.7665 14.9754 10.8768 14.9016 10.9697 14.8087H10.9677Z" fill="currentColor"/>
</svg>
