<svg width="19" height="19" viewBox="0 0 19 19" fill="none" xmlns="http://www.w3.org/2000/svg">
<path fill-rule="evenodd" clip-rule="evenodd" d="M5.35986 0.657471C5.62508 0.657471 5.87943 0.762828 6.06697 0.950364C6.25451 1.1379 6.35986 1.39225 6.35986 1.65747V2.65747H12.3599V1.65747C12.3599 1.39225 12.4652 1.1379 12.6528 0.950364C12.8403 0.762828 13.0946 0.657471 13.3599 0.657471C13.6251 0.657471 13.8794 0.762828 14.067 0.950364C14.2545 1.1379 14.3599 1.39225 14.3599 1.65747V2.65747H16.3599C16.8903 2.65747 17.399 2.86818 17.7741 3.24326C18.1491 3.61833 18.3599 4.12704 18.3599 4.65747V16.6575C18.3599 17.1879 18.1491 17.6966 17.7741 18.0717C17.399 18.4468 16.8903 18.6575 16.3599 18.6575H2.35986C1.82943 18.6575 1.32072 18.4468 0.94565 18.0717C0.570577 17.6966 0.359863 17.1879 0.359863 16.6575V4.65747C0.359863 4.12704 0.570577 3.61833 0.94565 3.24326C1.32072 2.86818 1.82943 2.65747 2.35986 2.65747H4.35986V1.65747C4.35986 1.39225 4.46522 1.1379 4.65276 0.950364C4.84029 0.762828 5.09465 0.657471 5.35986 0.657471ZM9.30086 7.79847C7.66286 6.14147 5.31086 7.67447 5.36086 9.93347C5.39086 11.2935 6.45586 12.5975 8.55586 13.8445L8.60886 13.8765C8.85586 14.0235 9.17386 14.2125 9.35986 14.2125C9.54586 14.2125 9.86386 14.0235 10.1099 13.8765L10.1639 13.8445C12.2639 12.5975 13.3289 11.2935 13.3589 9.93347C13.4089 7.67347 11.0569 6.14147 9.41886 7.79847C9.40331 7.81392 9.38228 7.82259 9.36036 7.82259C9.33844 7.82259 9.31741 7.81392 9.30186 7.79847" fill="#4A2D24"/>
</svg>
