<svg xmlns="http://www.w3.org/2000/svg" width="97" height="121" fill="none"><path fill="#4A2D24" fill-rule="evenodd" d="M88.762 78.976a6.042 6.042 0 0 1 4.712 11.104l-.652.278-26.36 9.413 26.36 9.413a6.04 6.04 0 0 1-3.383 11.582l-.677-.2L48.5 106.187 8.24 120.566a6.04 6.04 0 0 1-7.7-7.789 6.04 6.04 0 0 1 2.987-3.315l.653-.278 26.36-9.413-26.36-9.413a6.042 6.042 0 0 1 3.383-11.582l.677.2L48.5 93.355zM43.848 5.472l4.272-2.78 1.329-.803c2.96-1.674 6.223-2.78 9.044-.326 1.692 1.462 2.254 3.522 1.952 5.618l-.242 1.239-.09.846c-.03.507-.03 1.142.048 1.854.52 4.659 3.691 7.988 6.978 11.002l2.76 2.514 2.067 1.951c4.906 4.785 10.32 11.238 12.597 20.36 2.743 10.96.036 20.79-7.141 27.714-6.924 6.694-17.316 10.005-28.922 10.005-19.146 0-36.25-12.398-36.25-33.23 0-16.288 10.767-29.15 20.191-37.397a109 109 0 0 1 11.42-8.567m5.98 38.497-1.34-1.595-1.336 1.595-1.432 1.819-1.13 1.522-1.208 1.716c-3.299 4.827-6.978 11.455-6.978 17.013 0 6.948 5.413 12.585 12.083 12.585 6.676 0 12.084-5.637 12.084-12.585 0-5.558-3.68-12.186-6.979-17.013l-1.208-1.716-1.13-1.522z" clip-rule="evenodd"/></svg>