<svg width="21" height="21" viewBox="0 0 21 21" fill="none" xmlns="http://www.w3.org/2000/svg">
<path d="M10.3752 0.840088C15.8982 0.840088 20.3752 5.31709 20.3752 10.8401C20.3752 16.3631 15.8982 20.8401 10.3752 20.8401C4.85224 20.8401 0.375244 16.3631 0.375244 10.8401C0.375244 5.31709 4.85224 0.840088 10.3752 0.840088ZM13.9102 7.22109L8.96024 12.1711L6.84024 10.0501C6.7474 9.95718 6.63716 9.88346 6.51583 9.83316C6.3945 9.78285 6.26445 9.75693 6.1331 9.75689C5.86783 9.75679 5.61338 9.86208 5.42574 10.0496C5.2381 10.2371 5.13264 10.4915 5.13254 10.7567C5.13245 11.022 5.23774 11.2764 5.42524 11.4641L8.18324 14.2221C8.28539 14.3243 8.40668 14.4054 8.54017 14.4607C8.67367 14.516 8.81675 14.5445 8.96124 14.5445C9.10574 14.5445 9.24882 14.516 9.38232 14.4607C9.51581 14.4054 9.63709 14.3243 9.73924 14.2221L15.3252 8.63609C15.5129 8.44845 15.6183 8.19395 15.6183 7.92859C15.6183 7.66322 15.5129 7.40873 15.3252 7.22109C15.1376 7.03345 14.8831 6.92803 14.6177 6.92803C14.3524 6.92803 14.0979 7.03345 13.9102 7.22109Z" fill="#4A2D24"/>
</svg>
