<svg width="29" height="29" viewBox="0 0 29 29" fill="none" xmlns="http://www.w3.org/2000/svg">
<g clip-path="url(#clip0_35_312)">
<path d="M19.9375 13.2917C21.0921 13.2916 22.2269 13.5923 23.2299 14.1643C24.2329 14.7362 25.0697 15.5596 25.6576 16.5533C26.2456 17.547 26.5645 18.6768 26.583 19.8313C26.6014 20.9858 26.3188 22.1252 25.7629 23.1372L26.2293 24.7213C26.2909 24.9306 26.295 25.1527 26.2412 25.3642C26.1873 25.5757 26.0774 25.7688 25.9231 25.9231C25.7687 26.0774 25.5757 26.1873 25.3642 26.2412C25.1527 26.2951 24.9306 26.291 24.7213 26.2293L23.1384 25.7629C22.2502 26.2506 21.2622 26.5287 20.25 26.5761C19.2379 26.6234 18.2283 26.4387 17.2984 26.036C16.3686 25.6333 15.5432 25.0233 14.8852 24.2527C14.2273 23.482 13.7543 22.5712 13.5024 21.5897C13.2505 20.6082 13.2264 19.5821 13.4318 18.5899C13.6373 17.5977 14.0669 16.6655 14.6879 15.8648C15.3088 15.0641 16.1047 14.416 17.0145 13.97C17.9244 13.524 18.9242 13.292 19.9375 13.2917ZM13.2917 3.625C15.6961 3.62533 18.0328 4.42218 19.9365 5.89104C21.8401 7.35991 23.2036 9.41802 23.8138 11.7438C21.985 10.877 19.9186 10.6472 17.9441 11.0912C15.9695 11.5352 14.2004 12.6274 12.9187 14.1937C11.637 15.7599 10.9165 17.7102 10.8719 19.7335C10.8274 21.7569 11.4614 23.7369 12.673 25.3581C10.9244 25.2608 9.22555 24.7404 7.72244 23.8416L4.52036 24.7841C4.31033 24.8461 4.08748 24.8503 3.87527 24.7962C3.66307 24.7422 3.46935 24.632 3.31451 24.4771C3.15967 24.3223 3.04943 24.1286 2.99541 23.9164C2.94139 23.7042 2.94557 23.4813 3.00753 23.2713L3.95003 20.0692C2.96576 18.4184 2.43657 16.5362 2.41637 14.6143C2.39617 12.6924 2.88567 10.7995 3.83502 9.12838C4.78437 7.45722 6.15965 6.06752 7.82081 5.10079C9.48197 4.13406 11.3697 3.62484 13.2917 3.625Z" fill="#4A2D24"/>
</g>
<defs>
<clipPath id="clip0_35_312">
<rect width="29" height="29" fill="white"/>
</clipPath>
</defs>
</svg>
