<svg width="25" height="24" viewBox="0 0 25 24" fill="none" xmlns="http://www.w3.org/2000/svg">
<path d="M17.9375 10.2917C19.0921 10.2916 20.2269 10.5923 21.2299 11.1643C22.2329 11.7362 23.0697 12.5596 23.6576 13.5533C24.2456 14.547 24.5645 15.6768 24.583 16.8313C24.6014 17.9858 24.3188 19.1252 23.7629 20.1372L24.2293 21.7213C24.2909 21.9306 24.295 22.1527 24.2412 22.3642C24.1873 22.5757 24.0774 22.7688 23.9231 22.9231C23.7687 23.0774 23.5757 23.1873 23.3642 23.2412C23.1527 23.2951 22.9306 23.291 22.7213 23.2293L21.1384 22.7629C20.2502 23.2506 19.2622 23.5287 18.25 23.5761C17.2379 23.6234 16.2283 23.4387 15.2984 23.036C14.3686 22.6333 13.5432 22.0233 12.8852 21.2527C12.2273 20.482 11.7543 19.5712 11.5024 18.5897C11.2505 17.6082 11.2264 16.5821 11.4318 15.5899C11.6373 14.5977 12.0669 13.6655 12.6879 12.8648C13.3088 12.0641 14.1047 11.416 15.0145 10.97C15.9244 10.524 16.9242 10.292 17.9375 10.2917ZM11.2917 0.625C13.6961 0.62533 16.0328 1.42218 17.9365 2.89104C19.8401 4.35991 21.2036 6.41802 21.8138 8.74379C19.985 7.87695 17.9186 7.64722 15.9441 8.09122C13.9695 8.53521 12.2004 9.62738 10.9187 11.1937C9.63701 12.7599 8.91647 14.7102 8.87193 16.7335C8.8274 18.7569 9.46143 20.7369 10.673 22.3581C8.92438 22.2608 7.22555 21.7404 5.72244 20.8416L2.52036 21.7841C2.31033 21.8461 2.08748 21.8503 1.87527 21.7962C1.66307 21.7422 1.46935 21.632 1.31451 21.4771C1.15967 21.3223 1.04943 21.1286 0.99541 20.9164C0.941387 20.7042 0.945573 20.4813 1.00753 20.2713L1.95003 17.0692C0.965756 15.4184 0.436575 13.5362 0.416372 11.6143C0.39617 9.69243 0.885669 7.79953 1.83502 6.12838C2.78437 4.45722 4.15965 3.06752 5.82081 2.10079C7.48197 1.13406 9.36967 0.624845 11.2917 0.625Z" fill="#4A2D24"/>
</svg>
