<svg width="40" height="40" viewBox="0 0 40 40" fill="none" xmlns="http://www.w3.org/2000/svg">
<path d="M20 0C31.046 0 40 8.954 40 20C40 31.046 31.046 40 20 40C8.954 40 0 31.046 0 20C0 8.954 8.954 0 20 0ZM28.486 11.514C27.778 10.808 18.586 12.928 15.758 15.758C12.93 18.586 10.808 27.778 11.514 28.486C12.222 29.192 21.414 27.072 24.242 24.242C27.072 21.414 29.192 12.222 28.486 11.514ZM20 18C20.5304 18 21.0391 18.2107 21.4142 18.5858C21.7893 18.9609 22 19.4696 22 20C22 20.5304 21.7893 21.0391 21.4142 21.4142C21.0391 21.7893 20.5304 22 20 22C19.4696 22 18.9609 21.7893 18.5858 21.4142C18.2107 21.0391 18 20.5304 18 20C18 19.4696 18.2107 18.9609 18.5858 18.5858C18.9609 18.2107 19.4696 18 20 18Z" fill="#4A2D24"/>
</svg>
