<svg width="48" height="48" viewBox="0 0 48 48" fill="none" xmlns="http://www.w3.org/2000/svg">
<g clip-path="url(#clip0_35_255)">
<path d="M24 4C35.046 4 44 12.954 44 24C44 35.046 35.046 44 24 44C12.954 44 4 35.046 4 24C4 12.954 12.954 4 24 4ZM32.486 15.514C31.778 14.808 22.586 16.928 19.758 19.758C16.93 22.586 14.808 31.778 15.514 32.486C16.222 33.192 25.414 31.072 28.242 28.242C31.072 25.414 33.192 16.222 32.486 15.514ZM24 22C24.5304 22 25.0391 22.2107 25.4142 22.5858C25.7893 22.9609 26 23.4696 26 24C26 24.5304 25.7893 25.0391 25.4142 25.4142C25.0391 25.7893 24.5304 26 24 26C23.4696 26 22.9609 25.7893 22.5858 25.4142C22.2107 25.0391 22 24.5304 22 24C22 23.4696 22.2107 22.9609 22.5858 22.5858C22.9609 22.2107 23.4696 22 24 22Z" fill="#4A2D24"/>
</g>
<defs>
<clipPath id="clip0_35_255">
<rect width="48" height="48" fill="white"/>
</clipPath>
</defs>
</svg>
