<svg width="73" height="81" viewBox="0 0 73 81" fill="none" xmlns="http://www.w3.org/2000/svg">
<path fill-rule="evenodd" clip-rule="evenodd" d="M45.525 0.916626C47.1865 0.917057 48.8058 1.44026 50.1535 2.41211C51.5012 3.38397 52.5089 4.75522 53.034 6.33163L55.1833 12.7916H68.1667C69.2165 12.7916 70.2233 13.2087 70.9656 13.951C71.708 14.6933 72.125 15.7001 72.125 16.75C72.125 17.7998 71.708 18.8066 70.9656 19.5489C70.2233 20.2913 69.2165 20.7083 68.1667 20.7083L68.1548 20.9893L64.7229 69.0554C64.5087 72.0503 63.168 74.8529 60.9705 76.899C58.7731 78.9452 55.8822 80.0829 52.8796 80.0833H20.1204C17.1178 80.0829 14.2269 78.9452 12.0295 76.899C9.83202 74.8529 8.49127 72.0503 8.27708 69.0554L4.84521 20.9854C4.83805 20.8932 4.83409 20.8008 4.83333 20.7083C3.78352 20.7083 2.7767 20.2913 2.03437 19.5489C1.29204 18.8066 0.875 17.7998 0.875 16.75C0.875 15.7001 1.29204 14.6933 2.03437 13.951C2.7767 13.2087 3.78352 12.7916 4.83333 12.7916H17.8167L19.966 6.33163C20.4913 4.75458 21.4996 3.38287 22.8481 2.41096C24.1966 1.43904 25.8167 0.916226 27.479 0.916626H45.525ZM24.625 32.5833C23.6555 32.5834 22.7197 32.9394 21.9952 33.5836C21.2707 34.2279 20.8078 35.1156 20.6944 36.0785L20.6667 36.5416V60.2916C20.6678 61.3005 21.0541 62.2709 21.7467 63.0045C22.4393 63.7382 23.3859 64.1796 24.393 64.2388C25.4002 64.2979 26.3919 63.9702 27.1656 63.3227C27.9393 62.6751 28.4365 61.7566 28.5556 60.7548L28.5833 60.2916V36.5416C28.5833 35.4918 28.1663 34.485 27.424 33.7427C26.6816 33.0003 25.6748 32.5833 24.625 32.5833ZM48.375 32.5833C47.3252 32.5833 46.3184 33.0003 45.576 33.7427C44.8337 34.485 44.4167 35.4918 44.4167 36.5416V60.2916C44.4167 61.3414 44.8337 62.3483 45.576 63.0906C46.3184 63.8329 47.3252 64.25 48.375 64.25C49.4248 64.25 50.4316 63.8329 51.174 63.0906C51.9163 62.3483 52.3333 61.3414 52.3333 60.2916V36.5416C52.3333 35.4918 51.9163 34.485 51.174 33.7427C50.4316 33.0003 49.4248 32.5833 48.375 32.5833ZM45.525 8.83329H27.475L26.1569 12.7916H46.8431L45.525 8.83329Z" fill="#E65A42"/>
</svg>
