<svg width="17" height="21" viewBox="0 0 17 21" fill="none" xmlns="http://www.w3.org/2000/svg">
<path d="M9.6597 1.10571C9.6597 0.840496 9.55434 0.586142 9.36681 0.398606C9.17927 0.21107 8.92491 0.105713 8.6597 0.105713C8.39448 0.105713 8.14013 0.21107 7.95259 0.398606C7.76506 0.586142 7.6597 0.840496 7.6597 1.10571V2.10571H6.6597C6.12927 2.10571 5.62056 2.31643 5.24549 2.6915C4.87041 3.06657 4.6597 3.57528 4.6597 4.10571V6.10571C4.6597 6.63615 4.87041 7.14485 5.24549 7.51993C5.62056 7.895 6.12927 8.10571 6.6597 8.10571H7.6597V9.10571H4.0737C3.54331 9.10583 3.03468 9.31661 2.6597 9.69171L0.952699 11.3987C0.765228 11.5862 0.659912 11.8405 0.659912 12.1057C0.659912 12.3709 0.765228 12.6252 0.952699 12.8127L2.6597 14.5197C3.03468 14.8948 3.54331 15.1056 4.0737 15.1057H7.6597V18.1057H5.6597C5.39448 18.1057 5.14013 18.2111 4.95259 18.3986C4.76506 18.5861 4.6597 18.8405 4.6597 19.1057C4.6597 19.3709 4.76506 19.6253 4.95259 19.8128C5.14013 20.0004 5.39448 20.1057 5.6597 20.1057H11.6597C11.9249 20.1057 12.1793 20.0004 12.3668 19.8128C12.5543 19.6253 12.6597 19.3709 12.6597 19.1057C12.6597 18.8405 12.5543 18.5861 12.3668 18.3986C12.1793 18.2111 11.9249 18.1057 11.6597 18.1057H9.6597V15.1057H10.6597C11.1901 15.1057 11.6988 14.895 12.0739 14.5199C12.449 14.1449 12.6597 13.6361 12.6597 13.1057V11.1057C12.6597 10.5753 12.449 10.0666 12.0739 9.6915C11.6988 9.31643 11.1901 9.10571 10.6597 9.10571H9.6597V8.10571H13.2457C13.7761 8.1056 14.2847 7.89481 14.6597 7.51971L16.3667 5.81271C16.5542 5.62518 16.6595 5.37088 16.6595 5.10571C16.6595 4.84055 16.5542 4.58624 16.3667 4.39871L14.6597 2.69171C14.2847 2.31661 13.7761 2.10583 13.2457 2.10571H9.6597V1.10571Z" fill="#4A2D24"/>
</svg>
