<svg width="69" height="69" viewBox="0 0 69 69" fill="none" xmlns="http://www.w3.org/2000/svg">
<path d="M28.887 13.8805L55.1049 40.1021L28.5051 66.7057C27.2738 67.9369 25.6486 68.6957 23.9141 68.8491L23.2615 68.8751H3.85577C2.93305 68.8751 2.04279 68.5345 1.35572 67.9186C0.668639 67.3026 0.233096 66.4548 0.132602 65.5376L0.110352 65.1296V45.7239C0.110777 43.9827 0.723837 42.2971 1.84214 40.9624L2.28714 40.4803L28.887 13.8805ZM40.5312 2.2363C41.8436 0.923743 43.6005 0.151002 45.4549 0.0706748C47.3093 -0.00965277 49.1264 0.608273 50.5474 1.80243L51.0184 2.2363L66.7528 17.9708C68.0643 19.283 68.8364 21.0391 68.9167 22.8926C68.9971 24.7462 68.3798 26.5625 67.1867 27.9833L66.7528 28.4579L60.3522 34.8585L34.1343 8.63689L40.5312 2.2363Z" fill="#4A2D24"/>
</svg>
