<svg xmlns="http://www.w3.org/2000/svg" width="33" height="33" fill="none"><g clip-path="url(#a)"><path fill="#4A2D24" d="M16.5 3.438a2.063 2.063 0 0 1 0 4.124H9.625a.69.69 0 0 0-.687.688v16.5a.687.687 0 0 0 .687.688h6.188a2.062 2.062 0 0 1 0 4.125H9.625a4.813 4.813 0 0 1-4.812-4.813V8.25a4.813 4.813 0 0 1 4.812-4.812zm8.333 7.713 3.89 3.892a2.063 2.063 0 0 1 0 2.915l-3.89 3.89a2.063 2.063 0 0 1-2.917-2.917l.369-.369H16.5a2.062 2.062 0 0 1 0-4.125h5.785l-.369-.368a2.062 2.062 0 0 1 2.918-2.916z"/></g><defs><clipPath id="a"><path fill="#fff" d="M0 0h33v33H0z"/></clipPath></defs></svg>