<svg xmlns="http://www.w3.org/2000/svg" width="40" height="40" fill="none"><path fill="#4A2D24" d="M20 0c11.046 0 20 8.954 20 20s-8.954 20-20 20S0 31.046 0 20 8.954 0 20 0m4 22.8-3.128 2.502a1 1 0 0 0-.082 1.488l2.478 2.478a4 4 0 0 1 1.016 1.728l.35 1.226a3.6 3.6 0 0 0 2.034 2.326 16 16 0 0 0 5.066-3.67l-.468-3.754a4 4 0 0 0-2.18-3.08l-2.94-1.472A2 2 0 0 0 24 22.8M20 4a15.97 15.97 0 0 0-12.67 6.228L7 10.67v3.37a6 6 0 0 0 3.89 5.618l.356.12 2.58.79c2.746.84 5.42-1.394 5.154-4.192l-.038-.29-.35-2.098a2 2 0 0 1 1.312-2.216l.216-.06 1.224-.28a5.334 5.334 0 0 0 3.978-6.526A16 16 0 0 0 20 4"/></svg>