<svg width="50" height="56" viewBox="0 0 50 56" fill="none" xmlns="http://www.w3.org/2000/svg">
<path fill-rule="evenodd" clip-rule="evenodd" d="M8.5 17C8.5 12.6239 10.2384 8.42709 13.3327 5.33274C16.4271 2.23839 20.6239 0.5 25 0.5C29.3761 0.5 33.5729 2.23839 36.6673 5.33274C39.7616 8.42709 41.5 12.6239 41.5 17H44.25C45.7087 17 47.1076 17.5795 48.1391 18.6109C49.1705 19.6424 49.75 21.0413 49.75 22.5V50C49.75 51.4587 49.1705 52.8576 48.1391 53.8891C47.1076 54.9205 45.7087 55.5 44.25 55.5H5.75C4.29131 55.5 2.89236 54.9205 1.86091 53.8891C0.829462 52.8576 0.25 51.4587 0.25 50V22.5C0.25 21.0413 0.829462 19.6424 1.86091 18.6109C2.89236 17.5795 4.29131 17 5.75 17H8.5ZM25 6C27.9174 6 30.7153 7.15892 32.7782 9.22182C34.8411 11.2847 36 14.0826 36 17H14C14 14.0826 15.1589 11.2847 17.2218 9.22182C19.2847 7.15892 22.0826 6 25 6ZM30.5 33.5C30.5 34.4654 30.2458 35.4138 29.7631 36.2499C29.2804 37.086 28.5861 37.7803 27.75 38.263V41.75C27.75 42.4793 27.4603 43.1788 26.9445 43.6945C26.4288 44.2103 25.7293 44.5 25 44.5C24.2707 44.5 23.5712 44.2103 23.0555 43.6945C22.5397 43.1788 22.25 42.4793 22.25 41.75V38.263C21.2015 37.6576 20.3821 36.7232 19.9188 35.6046C19.4556 34.4861 19.3743 33.2459 19.6877 32.0765C20.001 30.907 20.6915 29.8737 21.652 29.1366C22.6125 28.3996 23.7893 28.0001 25 28C26.4587 28 27.8576 28.5795 28.8891 29.6109C29.9205 30.6424 30.5 32.0413 30.5 33.5Z" fill="#4A2D24"/>
</svg>
