<svg width="40" height="40" viewBox="0 0 40 40" fill="none" xmlns="http://www.w3.org/2000/svg">
<g clip-path="url(#clip0_35_261)">
<path fill-rule="evenodd" clip-rule="evenodd" d="M15 8.42339C14.8917 11.1601 15 28.3784 15 28.3784C15.2667 28.3784 15.5333 28.4217 15.79 28.5067L25 31.5767V11.6217C24.7315 11.6216 24.4647 11.5783 24.21 11.4934L15 8.42339ZM14.21 5.17339C14.7228 5.00259 15.2772 5.00259 15.79 5.17339L25 8.24339L33.815 5.30506C34.1406 5.19654 34.4874 5.16694 34.8267 5.2187C35.1661 5.27047 35.4882 5.40211 35.7667 5.60279C36.0452 5.80347 36.272 6.06744 36.4285 6.37296C36.5849 6.67848 36.6666 7.0168 36.6667 7.36006V29.4001C36.6666 29.9248 36.5014 30.4363 36.1945 30.8619C35.8876 31.2876 35.4545 31.6059 34.9567 31.7717L25.79 34.8267C25.2767 34.9984 24.7233 34.9984 24.21 34.8267L15 31.7567L6.185 34.6951C5.85935 34.8036 5.51258 34.8332 5.17326 34.7814C4.83393 34.7296 4.51175 34.598 4.23328 34.3973C3.9548 34.1966 3.72798 33.9327 3.57152 33.6271C3.41506 33.3216 3.33342 32.9833 3.33333 32.6401V10.6001C3.33338 10.0753 3.49856 9.56384 3.80547 9.13818C4.11238 8.71251 4.54545 8.39422 5.04333 8.22839L14.21 5.17339Z" fill="#4A2D24"/>
</g>
<defs>
<clipPath id="clip0_35_261">
<rect width="40" height="40" fill="white"/>
</clipPath>
</defs>
</svg>
