<svg width="21" height="21" viewBox="0 0 21 21" fill="none" xmlns="http://www.w3.org/2000/svg">
<path d="M7.49146 0.745469C7.63258 0.695559 7.7831 0.677964 7.93192 0.693982C8.08074 0.709999 8.22406 0.759221 8.35133 0.838015C8.47859 0.91681 8.58654 1.02317 8.66721 1.14925C8.74789 1.27532 8.79924 1.4179 8.81746 1.56647L8.82446 1.68747V10.1755C8.8243 10.68 9.01487 11.166 9.35796 11.536C9.70105 11.906 10.1713 12.1326 10.6745 12.1705L10.8245 12.1755H19.3125C19.4724 12.1755 19.63 12.2138 19.7721 12.2873C19.9142 12.3608 20.0365 12.4674 20.1289 12.5979C20.2213 12.7285 20.281 12.8794 20.303 13.0378C20.325 13.1962 20.3087 13.3576 20.2555 13.5085C18.8825 17.3915 15.1805 20.1755 10.8245 20.1755C5.30146 20.1755 0.824463 15.6985 0.824463 10.1755C0.824463 5.81947 3.60846 2.11747 7.49146 0.745469ZM11.8135 0.230469L11.9335 0.236469C14.1885 0.488695 16.2908 1.50007 17.8954 3.10458C19.4999 4.70909 20.5112 6.81141 20.7635 9.06647C20.7922 9.32807 20.7167 9.59048 20.5533 9.79677C20.3899 10.0031 20.1517 10.1366 19.8905 10.1685L19.7705 10.1755H11.8245C11.5795 10.1754 11.3431 10.0855 11.1601 9.92275C10.9771 9.75999 10.8601 9.53572 10.8315 9.29247L10.8245 9.17547V1.23047C10.8244 0.967147 10.9283 0.714446 11.1135 0.527223C11.2986 0.339999 11.5502 0.233365 11.8135 0.230469Z" fill="#4A2D24"/>
</svg>
