<svg width="64" height="64" viewBox="0 0 64 64" fill="none" xmlns="http://www.w3.org/2000/svg">
<path d="M58.6303 4.4035C59.1896 4.34743 59.7536 4.44666 60.2602 4.69029C60.7667 4.93391 61.1963 5.31249 61.5017 5.78441C64.516 10.3165 63.7738 17.069 60.0812 21.014C60.1213 21.3916 60.0904 21.7733 59.99 22.1395C59.3864 24.3561 58.6241 26.5263 57.7087 28.6334C56.0328 32.475 53.6694 36.3592 50.3388 39.6929C44.1033 45.9283 35.9152 48.7905 29.5216 50.1258C28.0204 50.4385 26.5075 50.6922 24.9865 50.8862L23.4048 51.0687L21.9874 51.1935C21.5433 51.2269 21.1327 51.2543 20.7525 51.2756L20.4453 53.8002L20.2506 55.6039L20.1685 56.486L19.8126 60.8751C19.6696 62.5176 18.4499 63.9167 16.7709 63.9167C15.9642 63.9167 15.1906 63.5963 14.6201 63.0259C14.0497 62.4554 13.7293 61.6818 13.7293 60.8751C13.7293 60.4006 13.7566 59.8105 13.7992 59.1413L13.9118 57.7209L14.0578 56.1848L14.3163 53.8427L14.4015 53.0884C15.025 47.8203 15.7581 42.6646 17.4036 37.6063C19.3046 31.7663 22.7265 24.2869 28.8281 18.1822C33.6157 13.3977 39.2701 10.2435 44.3619 8.17517L45.7367 7.63983L47.0751 7.15317C47.2941 7.07712 47.5131 7.00108 47.729 6.93112L49.0065 6.51746L50.2293 6.15246L51.9569 5.681L53.5356 5.29775L54.4937 5.08787L56.1544 4.7685L57.9095 4.49171L58.6303 4.4035ZM12.2084 0.041748C12.7775 0.0417468 13.3351 0.201369 13.8179 0.502473C14.3008 0.803578 14.6895 1.23409 14.9398 1.74508L15.0858 2.10096L15.4813 3.25071C15.8986 4.47401 16.571 5.59471 17.4541 6.53857C18.3371 7.48244 19.4106 8.22794 20.6034 8.72571L21.1661 8.93862L22.3159 9.331C22.8851 9.52559 23.3838 9.88458 23.749 10.3626C24.1142 10.8406 24.3295 11.4162 24.3675 12.0165C24.4056 12.6169 24.2649 13.215 23.963 13.7354C23.6612 14.2557 23.2118 14.6749 22.6718 14.9398L22.3159 15.0858L21.1661 15.4812C19.9428 15.8986 18.8221 16.571 17.8783 17.4541C16.9344 18.3371 16.1889 19.4106 15.6911 20.6034L15.4782 21.1661L15.0858 22.3159C14.8913 22.8851 14.5323 23.3838 14.0542 23.749C13.5762 24.1142 13.0007 24.3294 12.4003 24.3675C11.8 24.4056 11.2018 24.2648 10.6815 23.963C10.1611 23.6612 9.74198 23.2118 9.47701 22.6717L9.33101 22.3159L8.9356 21.1661C8.51828 19.9428 7.84583 18.8221 6.96279 17.8783C6.07975 16.9344 5.00627 16.1889 3.81343 15.6911L3.25072 15.4782L2.10097 15.0858C1.53176 14.8912 1.03303 14.5322 0.667846 14.0542C0.302658 13.5762 0.0874096 13.0006 0.0493184 12.4003C0.0112272 11.8 0.152004 11.2018 0.453847 10.6815C0.755691 10.1611 1.20505 9.74197 1.7451 9.477L2.10097 9.331L3.25072 8.93558C4.47403 8.51826 5.59472 7.84582 6.53859 6.96278C7.48246 6.07974 8.22796 5.00626 8.72572 3.81341L8.93864 3.25071L9.33101 2.10096C9.53595 1.50049 9.92353 0.979144 10.4395 0.609899C10.9554 0.240655 11.574 0.0420012 12.2084 0.041748Z" fill="#4A2D24"/>
</svg>
