<svg width="20" height="20" viewBox="0 0 20 20" fill="none" xmlns="http://www.w3.org/2000/svg">
<path d="M0 2C0 1.46957 0.210714 0.960861 0.585786 0.585788C0.960859 0.210715 1.46957 1.68914e-06 2 1.68914e-06H4C4.364 1.68914e-06 4.706 0.0970016 5 0.268002C5.30385 0.0920066 5.64886 -0.000455755 6 1.68914e-06H8C8.727 1.68914e-06 9.364 0.388002 9.714 0.969002C9.924 0.801002 10.17 0.673002 10.446 0.599002L12.378 0.0820017C12.6317 0.0139446 12.8963 -0.00346559 13.1568 0.0307656C13.4172 0.0649967 13.6684 0.150199 13.8959 0.281505C14.1234 0.412812 14.3228 0.58765 14.4828 0.796036C14.6427 1.00442 14.76 1.24227 14.828 1.496L18.968 16.951C19.0361 17.2047 19.0535 17.4694 19.0192 17.7298C18.985 17.9902 18.8998 18.2414 18.7685 18.4689C18.6372 18.6964 18.4624 18.8958 18.254 19.0558C18.0456 19.2157 17.8077 19.333 17.554 19.401L15.622 19.918C15.3683 19.9861 15.1037 20.0035 14.8432 19.9692C14.5828 19.935 14.3316 19.8498 14.1041 19.7185C13.8766 19.5872 13.6772 19.4124 13.5172 19.204C13.3573 18.9956 13.24 18.7577 13.172 18.504L10 6.663V18C10 18.5304 9.78929 19.0391 9.41421 19.4142C9.03914 19.7893 8.53043 20 8 20H6C5.64886 20.0005 5.30385 19.908 5 19.732C4.69615 19.908 4.35114 20.0005 4 20H2C1.46957 20 0.960859 19.7893 0.585786 19.4142C0.210714 19.0391 0 18.5304 0 18V2Z" fill="#4A2D24"/>
</svg>
