<svg width="80" height="77" viewBox="0 0 80 77" fill="none" xmlns="http://www.w3.org/2000/svg">
<path fill-rule="evenodd" clip-rule="evenodd" d="M48.9884 63.7663C51.0679 62.7267 53.3489 62.1527 55.6727 62.0843C57.9966 62.0159 60.3074 62.4548 62.4444 63.3704L63.3004 63.7704L73.9324 69.0824C74.8457 69.5383 75.5501 70.3262 75.9013 71.2847C76.2526 72.2431 76.2241 73.2996 75.8218 74.2377C75.4194 75.1759 74.6736 75.9247 73.7371 76.3308C72.8006 76.737 71.7443 76.7697 70.7844 76.4224L70.3564 76.2383L59.7204 70.9224C58.723 70.4237 57.6324 70.1391 56.5186 70.0867C55.4047 70.0344 54.2922 70.2155 53.2524 70.6184L52.5644 70.9224L47.3004 73.5584C45.2201 74.598 42.9383 75.1716 40.6137 75.2393C38.2891 75.307 35.9777 74.8671 33.8404 73.9504L32.9884 73.5584L27.7204 70.9224C26.723 70.4237 25.6324 70.1391 24.5185 70.0867C23.4047 70.0344 22.2922 70.2155 21.2524 70.6184L20.5644 70.9224L9.93242 76.2424C9.01903 76.7043 7.96333 76.7984 6.98259 76.5055C6.00186 76.2126 5.17073 75.5549 4.66027 74.6677C4.1498 73.7806 3.99885 72.7315 4.23847 71.7364C4.47809 70.7413 5.09006 69.8759 5.94842 69.3184L6.35642 69.0824L16.9884 63.7663C19.0679 62.7267 21.3489 62.1527 23.6727 62.0843C25.9966 62.0159 28.3074 62.4548 30.4444 63.3704L31.3004 63.7704L36.5644 66.4024C37.5623 66.9016 38.6537 67.1865 39.7683 67.2389C40.8829 67.2912 41.9961 67.1098 43.0364 66.7064L43.7204 66.4024L48.9884 63.7663ZM44.1444 0.662354C45.2053 0.662354 46.2227 1.08378 46.9728 1.83393C47.723 2.58407 48.1444 3.60149 48.1444 4.66235V9.94235L61.4604 12.1584C63.3276 12.4707 65.0236 13.4352 66.2467 14.8802C67.4698 16.3252 68.1408 18.1572 68.1404 20.0504V33.7784L76.3804 36.5224C77.0367 36.7413 77.6404 37.094 78.1533 37.5582C78.6662 38.0225 79.0772 38.5881 79.3603 39.2193C79.6434 39.8506 79.7925 40.5337 79.798 41.2255C79.8035 41.9173 79.6654 42.6027 79.3924 43.2384L70.7164 63.4784L63.3004 59.7663C61.0786 58.6553 58.6286 58.0769 56.1444 58.0769C53.6603 58.0769 51.2103 58.6553 48.9884 59.7663L43.7204 62.4024C42.6095 62.9579 41.3845 63.2471 40.1424 63.2471C38.9004 63.2471 37.6753 62.9579 36.5644 62.4024L31.3004 59.7663C29.0786 58.6553 26.6286 58.0769 24.1444 58.0769C21.6603 58.0769 19.2103 58.6553 16.9884 59.7663L11.9084 62.3104L1.27642 43.7064C0.909415 43.0641 0.689499 42.3484 0.632527 41.6108C0.575555 40.8733 0.682947 40.1323 0.94696 39.4412C1.21097 38.7502 1.62503 38.1264 2.15927 37.6147C2.69352 37.103 3.33464 36.7163 4.03642 36.4824L12.1444 33.7784V20.0504C12.144 18.1572 12.815 16.3252 14.0382 14.8802C15.2613 13.4352 16.9572 12.4707 18.8244 12.1584L32.1444 9.94235V4.66235C32.1444 3.60149 32.5658 2.58407 33.316 1.83393C34.0661 1.08378 35.0836 0.662354 36.1444 0.662354H44.1444ZM40.1444 16.7184L20.1444 20.0504V31.1144L37.6124 25.2904C39.2547 24.7429 41.0302 24.7429 42.6724 25.2904L60.1444 31.1144V20.0504L40.1444 16.7184Z" fill="#4A2D24"/>
</svg>
