<svg width="39" height="39" viewBox="0 0 39 39" fill="none" xmlns="http://www.w3.org/2000/svg">
<g clip-path="url(#clip0_35_279)">
<path d="M14.625 32.5C15.056 32.5 15.4693 32.6712 15.774 32.976C16.0788 33.2807 16.25 33.694 16.25 34.125C16.25 34.556 16.0788 34.9693 15.774 35.2741C15.4693 35.5788 15.056 35.75 14.625 35.75C14.194 35.75 13.7807 35.5788 13.476 35.2741C13.1712 34.9693 13 34.556 13 34.125C13 33.694 13.1712 33.2807 13.476 32.976C13.7807 32.6712 14.194 32.5 14.625 32.5ZM26 32.5C26.431 32.5 26.8443 32.6712 27.149 32.976C27.4538 33.2807 27.625 33.694 27.625 34.125C27.625 34.556 27.4538 34.9693 27.149 35.2741C26.8443 35.5788 26.431 35.75 26 35.75C25.569 35.75 25.1557 35.5788 24.851 35.2741C24.5462 34.9693 24.375 34.556 24.375 34.125C24.375 33.694 24.5462 33.2807 24.851 32.976C25.1557 32.6712 25.569 32.5 26 32.5ZM3.575 4.7125C3.8124 4.39591 4.15716 4.17682 4.5446 4.09634C4.93204 4.01586 5.33553 4.07952 5.67937 4.27538L5.85 4.38913L8.6255 6.46913C9.09783 6.82353 9.46467 7.29992 9.68662 7.84713L9.78412 8.125H30.6589C31.0994 8.12489 31.5354 8.21435 31.9403 8.38794C32.3452 8.56153 32.7106 8.81563 33.0143 9.1348C33.3179 9.45397 33.5535 9.83154 33.7068 10.2446C33.86 10.6576 33.9277 11.0975 33.9056 11.5375L33.8845 11.778L33.1419 17.7174C32.919 19.5048 32.1085 21.1674 30.8378 22.444C29.5671 23.7206 27.9082 24.5388 26.1219 24.7699L25.7546 24.8073L13.871 25.7985L14.2935 27.625H28.4375C28.8517 27.6255 29.25 27.7841 29.5512 28.0684C29.8524 28.3527 30.0336 28.7413 30.0579 29.1548C30.0822 29.5682 29.9477 29.9754 29.6818 30.293C29.416 30.6106 29.0389 30.8147 28.6276 30.8636L28.4375 30.875H14.2935C13.6039 30.8751 12.9321 30.6559 12.3753 30.2489C11.8185 29.842 11.4056 29.2685 11.1962 28.6114L11.1264 28.3563L6.67387 9.0675L3.9 6.9875C3.55522 6.72892 3.32728 6.34396 3.26633 5.91731C3.20538 5.49067 3.31641 5.05729 3.575 4.7125Z" fill="#4A2D24"/>
</g>
<defs>
<clipPath id="clip0_35_279">
<rect width="39" height="39" fill="white"/>
</clipPath>
</defs>
</svg>
