<svg xmlns="http://www.w3.org/2000/svg" width="31" height="32" fill="none"><path fill="#4A2D24" d="M11.625 28.5a1.625 1.625 0 1 1 0 3.25 1.625 1.625 0 0 1 0-3.25M23 28.5a1.625 1.625 0 1 1 0 3.25 1.625 1.625 0 0 1 0-3.25M.575.713A1.625 1.625 0 0 1 2.679.275L2.85.39l2.775 2.08c.473.355.84.83 1.062 1.378l.097.278H27.66a3.25 3.25 0 0 1 3.247 3.412l-.021.241-.743 5.94a8.125 8.125 0 0 1-7.02 7.052l-.367.037-11.884.992.422 1.826h14.145a1.625 1.625 0 0 1 .19 3.239l-.19.011H11.294a3.25 3.25 0 0 1-3.098-2.264l-.07-.255L3.674 5.067.9 2.987A1.625 1.625 0 0 1 .575.713"/></svg>