<svg width="29" height="29" viewBox="0 0 29 29" fill="none" xmlns="http://www.w3.org/2000/svg">
<g clip-path="url(#clip0_35_306)">
<path d="M13.195 3.46551C13.328 3.23733 13.5185 3.048 13.7474 2.91641C13.9764 2.78482 14.2359 2.71558 14.5 2.71558C14.7641 2.71558 15.0236 2.78482 15.2526 2.91641C15.4816 3.048 15.672 3.23733 15.805 3.46551L19.1823 9.26309L25.7411 10.6841C25.9991 10.7402 26.2379 10.8629 26.4337 11.04C26.6295 11.2171 26.7754 11.4425 26.857 11.6936C26.9385 11.9447 26.9528 12.2128 26.8984 12.4711C26.8441 12.7295 26.7229 12.9691 26.5471 13.166L22.0763 18.1697L22.7529 24.8458C22.7796 25.1086 22.7369 25.3739 22.629 25.6151C22.5211 25.8563 22.3518 26.065 22.138 26.2203C21.9243 26.3756 21.6735 26.4721 21.4108 26.5002C21.148 26.5283 20.8825 26.487 20.6408 26.3803L14.5 23.6737L8.35926 26.3803C8.1175 26.487 7.85199 26.5283 7.58926 26.5002C7.32652 26.4721 7.07575 26.3756 6.86198 26.2203C6.64821 26.065 6.47893 25.8563 6.37103 25.6151C6.26314 25.3739 6.2204 25.1086 6.2471 24.8458L6.92376 18.1697L2.45293 13.1672C2.27679 12.9703 2.15538 12.7306 2.10084 12.4721C2.04629 12.2136 2.06051 11.9453 2.14208 11.694C2.22364 11.4427 2.3697 11.2172 2.56567 11.0399C2.76164 10.8627 3.00067 10.74 3.25889 10.6841L9.81772 9.26309L13.195 3.46551Z" fill="#4A2D24"/>
</g>
<defs>
<clipPath id="clip0_35_306">
<rect width="29" height="29" fill="white"/>
</clipPath>
</defs>
</svg>
