<svg width="50" height="53" viewBox="0 0 50 53" fill="none" xmlns="http://www.w3.org/2000/svg">
<path d="M40.1251 0.25002C42.0118 0.249849 43.857 0.804191 45.4312 1.84414C47.0054 2.88408 48.2393 4.36377 48.9794 6.09925C49.7196 7.83473 49.9333 9.74947 49.5941 11.6054C49.2549 13.4614 48.3777 15.1768 47.0716 16.5383C48.8381 20.0112 49.7561 23.8536 49.7501 27.75C49.7538 31.1927 49.0374 34.5982 47.647 37.7476C46.2565 40.897 44.2226 43.7208 41.6761 46.0375L43.4443 47.8058C43.9453 48.3244 44.2225 49.0191 44.2162 49.7401C44.2099 50.4612 43.9207 51.1509 43.4108 51.6608C42.901 52.1706 42.2112 52.4599 41.4902 52.4661C40.7691 52.4724 40.0745 52.1952 39.5558 51.6943L37.1688 49.3073C33.4572 51.4066 29.2643 52.5067 25.0001 52.5C20.7359 52.5067 16.543 51.4066 12.8313 49.3073L10.4443 51.6943C9.92567 52.1952 9.23102 52.4724 8.50998 52.4661C7.78894 52.4599 7.0992 52.1706 6.58933 51.6608C6.07946 51.1509 5.79024 50.4612 5.78398 49.7401C5.77771 49.0191 6.0549 48.3244 6.55583 47.8058L8.32408 46.0375C5.77752 43.7208 3.74368 40.897 2.3532 37.7476C0.962719 34.5982 0.246342 31.1927 0.250081 27.75C0.243865 23.8536 1.16182 20.0112 2.92858 16.5383C2.01815 15.5898 1.31169 14.4649 0.852763 13.2329C0.393835 12.0008 0.192173 10.6879 0.260214 9.37492C0.328255 8.06197 0.664556 6.77688 1.24838 5.5989C1.8322 4.42093 2.65116 3.37505 3.65475 2.52577C4.65834 1.67649 5.82528 1.04182 7.0836 0.660897C8.34193 0.279977 9.66494 0.160885 10.9711 0.310967C12.2772 0.461049 13.5387 0.877122 14.6778 1.53353C15.817 2.18993 16.8095 3.07274 17.5943 4.12752C19.9914 3.37795 22.4886 2.99776 25.0001 3.00002C27.5796 3.00002 30.0656 3.39327 32.4058 4.12752C33.3005 2.92351 34.4647 1.9457 35.8051 1.27238C37.1456 0.599059 38.625 0.248928 40.1251 0.25002ZM25.0001 14C24.3265 14.0001 23.6764 14.2474 23.1731 14.695C22.6697 15.1426 22.3481 15.7593 22.2693 16.4283L22.2501 16.75V27.7115C22.241 28.3232 22.4365 28.9204 22.8056 29.4083L23.0531 29.6943L28.8446 35.483C29.3383 35.9815 30.0039 36.2724 30.7051 36.2961C31.4063 36.3199 32.09 36.0748 32.6164 35.611C33.1428 35.1472 33.472 34.4997 33.5366 33.8011C33.6013 33.1024 33.3964 32.4056 32.9641 31.853L32.7331 31.5945L27.7501 26.6115V16.75C27.7501 16.0207 27.4603 15.3212 26.9446 14.8055C26.4289 14.2898 25.7294 14 25.0001 14Z" fill="#4A2D24"/>
</svg>
