<svg width="30" height="34" viewBox="0 0 30 34" fill="none" xmlns="http://www.w3.org/2000/svg">
<path d="M21.6667 20.3334C23.8141 20.3335 25.8786 21.1626 27.4296 22.6478C28.9807 24.133 29.8985 26.1596 29.9917 28.305L30 28.6667V30.3334C30.0003 31.1743 29.6827 31.9843 29.1108 32.601C28.539 33.2176 27.7553 33.5953 26.9167 33.6584L26.6667 33.6667H3.33333C2.49237 33.667 1.68239 33.3494 1.06575 32.7775C0.449118 32.2057 0.0714055 31.422 0.00833352 30.5834L0 30.3334V28.6667C0.000124071 26.5193 0.829236 24.4548 2.31443 22.9037C3.79963 21.3527 5.82625 20.4349 7.97167 20.3417L8.33333 20.3334H21.6667ZM15 0.333374C17.2101 0.333374 19.3298 1.21135 20.8926 2.77415C22.4554 4.33695 23.3333 6.45657 23.3333 8.66671C23.3333 10.8768 22.4554 12.9965 20.8926 14.5593C19.3298 16.1221 17.2101 17 15 17C12.7899 17 10.6702 16.1221 9.10744 14.5593C7.54464 12.9965 6.66667 10.8768 6.66667 8.66671C6.66667 6.45657 7.54464 4.33695 9.10744 2.77415C10.6702 1.21135 12.7899 0.333374 15 0.333374Z" fill="#4A2D24"/>
</svg>
  