<svg width="40" height="40" viewBox="0 0 40 40" fill="none" xmlns="http://www.w3.org/2000/svg">
<g clip-path="url(#clip0_35_267)">
<path d="M26.6667 23.3334C28.8141 23.3335 30.8786 24.1626 32.4296 25.6478C33.9807 27.133 34.8985 29.1596 34.9917 31.305L35 31.6667V33.3334C35.0003 34.1743 34.6827 34.9843 34.1108 35.601C33.539 36.2176 32.7553 36.5953 31.9167 36.6584L31.6667 36.6667H8.33333C7.49237 36.667 6.68239 36.3494 6.06575 35.7775C5.44912 35.2057 5.07141 34.422 5.00833 33.5834L5 33.3334V31.6667C5.00012 29.5193 5.82924 27.4548 7.31443 25.9037C8.79963 24.3527 10.8263 23.4349 12.9717 23.3417L13.3333 23.3334H26.6667ZM20 3.33337C22.2101 3.33337 24.3298 4.21135 25.8926 5.77415C27.4554 7.33695 28.3333 9.45657 28.3333 11.6667C28.3333 13.8768 27.4554 15.9965 25.8926 17.5593C24.3298 19.1221 22.2101 20 20 20C17.7899 20 15.6702 19.1221 14.1074 17.5593C12.5446 15.9965 11.6667 13.8768 11.6667 11.6667C11.6667 9.45657 12.5446 7.33695 14.1074 5.77415C15.6702 4.21135 17.7899 3.33337 20 3.33337Z" fill="#4A2D24"/>
</g>
<defs>
<clipPath id="clip0_35_267">
<rect width="40" height="40" fill="white"/>
</clipPath>
</defs>
</svg>
