<svg width="46" height="39" viewBox="0 0 46 39" fill="none" xmlns="http://www.w3.org/2000/svg">
<path d="M25.25 23.25C27.6369 23.25 29.9261 24.1982 31.614 25.886C33.3018 27.5739 34.25 29.8631 34.25 32.25V35.625C34.25 36.5201 33.8944 37.3785 33.2615 38.0115C32.6285 38.6444 31.7701 39 30.875 39H3.875C2.97989 39 2.12145 38.6444 1.48851 38.0115C0.855579 37.3785 0.5 36.5201 0.5 35.625V32.25C0.5 29.8631 1.44821 27.5739 3.13604 25.886C4.82387 24.1982 7.11305 23.25 9.5 23.25H25.25ZM38.75 23.25C40.5402 23.25 42.2571 23.9612 43.523 25.227C44.7888 26.4929 45.5 28.2098 45.5 30V33.375C45.5 34.2701 45.1444 35.1285 44.5115 35.7615C43.8785 36.3944 43.0201 36.75 42.125 36.75H38.75V32.25C38.7514 30.5032 38.3454 28.7802 37.5642 27.2179C36.783 25.6556 35.6482 24.2969 34.25 23.25H38.75ZM17.375 0.75C20.0603 0.75 22.6356 1.81674 24.5345 3.71554C26.4333 5.61435 27.5 8.18968 27.5 10.875C27.5 13.5603 26.4333 16.1356 24.5345 18.0345C22.6356 19.9333 20.0603 21 17.375 21C14.6897 21 12.1143 19.9333 10.2155 18.0345C8.31674 16.1356 7.25 13.5603 7.25 10.875C7.25 8.18968 8.31674 5.61435 10.2155 3.71554C12.1143 1.81674 14.6897 0.75 17.375 0.75ZM36.5 7.5C38.2902 7.5 40.0071 8.21116 41.273 9.47703C42.5388 10.7429 43.25 12.4598 43.25 14.25C43.25 16.0402 42.5388 17.7571 41.273 19.023C40.0071 20.2888 38.2902 21 36.5 21C34.7098 21 32.9929 20.2888 31.727 19.023C30.4612 17.7571 29.75 16.0402 29.75 14.25C29.75 12.4598 30.4612 10.7429 31.727 9.47703C32.9929 8.21116 34.7098 7.5 36.5 7.5Z" fill="#4A2D24"/>
</svg>
