<svg width="45" height="45" viewBox="0 0 45 45" fill="none" xmlns="http://www.w3.org/2000/svg">
<g clip-path="url(#clip0_35_273)">
<path fill-rule="evenodd" clip-rule="evenodd" d="M22.5 5.625C22.9973 5.625 23.4742 5.82254 23.8258 6.17417C24.1775 6.52581 24.375 7.00272 24.375 7.5V9.375H25.8075C26.3894 9.37504 26.9633 9.51049 27.4837 9.77063L30.4425 11.25H37.5C37.9973 11.25 38.4742 11.4475 38.8258 11.7992C39.1775 12.1508 39.375 12.6277 39.375 13.125C39.375 13.6223 39.1775 14.0992 38.8258 14.4508C38.4742 14.8025 37.9973 15 37.5 15H36.7837L41.0512 23.5369C41.1825 23.7975 41.25 24.0844 41.25 24.375C41.25 26.3641 40.4598 28.2718 39.0533 29.6783C37.6468 31.0848 35.7391 31.875 33.75 31.875C31.7609 31.875 29.8532 31.0848 28.4467 29.6783C27.0402 28.2718 26.25 26.3641 26.25 24.375C26.25 24.0844 26.3175 23.7975 26.4487 23.5369L30.7162 15H30.4425C29.8606 15 29.2867 14.8645 28.7663 14.6044L25.8075 13.125H24.375V35.625H30C30.4973 35.625 30.9742 35.8225 31.3258 36.1742C31.6775 36.5258 31.875 37.0027 31.875 37.5C31.875 37.9973 31.6775 38.4742 31.3258 38.8258C30.9742 39.1775 30.4973 39.375 30 39.375H15C14.5027 39.375 14.0258 39.1775 13.6742 38.8258C13.3225 38.4742 13.125 37.9973 13.125 37.5C13.125 37.0027 13.3225 36.5258 13.6742 36.1742C14.0258 35.8225 14.5027 35.625 15 35.625H20.625V13.125H19.1925L16.2338 14.6044C15.7133 14.8645 15.1394 15 14.5575 15H14.2838L18.5513 23.5369C18.6816 23.797 18.7497 24.084 18.75 24.375C18.75 26.3641 17.9598 28.2718 16.5533 29.6783C15.1468 31.0848 13.2391 31.875 11.25 31.875C9.26088 31.875 7.35322 31.0848 5.9467 29.6783C4.54018 28.2718 3.75 26.3641 3.75 24.375C3.75031 24.084 3.81836 23.797 3.94875 23.5369L8.21625 15H7.5C7.00272 15 6.52581 14.8025 6.17417 14.4508C5.82254 14.0992 5.625 13.6223 5.625 13.125C5.625 12.6277 5.82254 12.1508 6.17417 11.7992C6.52581 11.4475 7.00272 11.25 7.5 11.25H14.5575L17.5162 9.77063C18.0367 9.51049 18.6106 9.37504 19.1925 9.375H20.625V7.5C20.625 7.00272 20.8225 6.52581 21.1742 6.17417C21.5258 5.82254 22.0027 5.625 22.5 5.625Z" fill="#4A2D24"/>
</g>
<defs>
<clipPath id="clip0_35_273">
<rect width="45" height="45" fill="white"/>
</clipPath>
</defs>
</svg>
