<svg xmlns="http://www.w3.org/2000/svg" width="39" height="35" fill="none"><path fill="#4A2D24" fill-rule="evenodd" d="M19.5.625A1.875 1.875 0 0 1 21.375 2.5v1.875h1.433a3.75 3.75 0 0 1 1.676.396l2.958 1.479H34.5a1.875 1.875 0 1 1 0 3.75h-.716l4.267 8.537c.131.26.199.547.199.838a7.5 7.5 0 0 1-15 0c0-.29.067-.578.199-.838L27.716 10h-.274a3.75 3.75 0 0 1-1.676-.396l-2.958-1.479h-1.433v22.5H27a1.875 1.875 0 1 1 0 3.75H12a1.875 1.875 0 1 1 0-3.75h5.625v-22.5h-1.433l-2.958 1.48a3.75 3.75 0 0 1-1.677.395h-.273l4.267 8.537c.13.26.199.547.199.838a7.5 7.5 0 0 1-15 0c0-.291.068-.578.199-.838L5.216 10H4.5a1.875 1.875 0 1 1 0-3.75h7.057l2.96-1.48a3.75 3.75 0 0 1 1.675-.395h1.433V2.5A1.875 1.875 0 0 1 19.5.625" clip-rule="evenodd"/></svg>